<svg xmlns="http://www.w3.org/2000/svg" width="176" height="140.857" viewBox="0 0 176 140.857"><defs><style>.a{fill:none;stroke:#fff;stroke-width:6px;}.b{fill:#d3d3d3;}</style></defs><g transform="translate(-997 -131)"><path class="a" d="M-1335.416-684H-1426a2,2,0,0,1-2-2V-792a2,2,0,0,1,2-2h166a2,2,0,0,1,2,2v106a2,2,0,0,1-2,2h-28.186l-23.615,23.615Z" transform="translate(2428 928)"/><g transform="translate(260 -94.012)"><rect class="b" width="72.812" height="7.856" rx="3.928" transform="translate(805.596 252)"/><rect class="b" width="47.174" height="7.856" rx="3.928" transform="translate(831.234 275.534)"/><rect class="b" width="23.587" height="7.856" rx="3.928" transform="translate(854.821 302.59)"/><rect class="b" width="27.689" height="7.856" rx="3.928" transform="translate(771.56 252)"/><rect class="b" width="54.353" height="7.856" rx="3.928" transform="translate(771.56 275.534)"/><rect class="b" width="76.914" height="7.856" rx="3.928" transform="translate(771.56 302.59)"/></g></g></svg>