<svg xmlns="http://www.w3.org/2000/svg" width="126.92" height="212.677" viewBox="0 0 126.92 212.677"><defs><style>.a{fill:#d3d3d3;}</style></defs><g transform="translate(0 0)"><circle class="a" cx="3.43" cy="3.43" r="3.43" transform="translate(0 0)"/><circle class="a" cx="3.43" cy="3.43" r="3.43" transform="translate(24.012 0)"/><circle class="a" cx="3.43" cy="3.43" r="3.43" transform="translate(48.024 0)"/><circle class="a" cx="3.43" cy="3.43" r="3.43" transform="translate(72.036 0)"/><circle class="a" cx="3.43" cy="3.43" r="3.43" transform="translate(96.048 0)"/><circle class="a" cx="3.43" cy="3.43" r="3.43" transform="translate(120.059 0)"/><circle class="a" cx="3.43" cy="3.43" r="3.43" transform="translate(0 25.727)"/><circle class="a" cx="3.43" cy="3.43" r="3.43" transform="translate(24.012 25.727)"/><circle class="a" cx="3.43" cy="3.43" r="3.43" transform="translate(48.024 25.727)"/><circle class="a" cx="3.43" cy="3.43" r="3.43" transform="translate(72.036 25.727)"/><circle class="a" cx="3.43" cy="3.43" r="3.43" transform="translate(96.048 25.727)"/><circle class="a" cx="3.43" cy="3.43" r="3.43" transform="translate(120.059 25.727)"/><circle class="a" cx="3.43" cy="3.43" r="3.43" transform="translate(0 51.454)"/><circle class="a" cx="3.43" cy="3.43" r="3.43" transform="translate(24.012 51.454)"/><circle class="a" cx="3.43" cy="3.43" r="3.43" transform="translate(48.024 51.454)"/><circle class="a" cx="3.43" cy="3.43" r="3.43" transform="translate(72.036 51.454)"/><circle class="a" cx="3.43" cy="3.43" r="3.43" transform="translate(96.048 51.454)"/><circle class="a" cx="3.43" cy="3.43" r="3.43" transform="translate(120.059 51.454)"/><circle class="a" cx="3.43" cy="3.43" r="3.43" transform="translate(0 77.181)"/><circle class="a" cx="3.43" cy="3.43" r="3.43" transform="translate(24.012 77.181)"/><circle class="a" cx="3.43" cy="3.43" r="3.43" transform="translate(48.024 77.181)"/><circle class="a" cx="3.43" cy="3.43" r="3.43" transform="translate(72.036 77.181)"/><circle class="a" cx="3.43" cy="3.43" r="3.43" transform="translate(96.048 77.181)"/><circle class="a" cx="3.43" cy="3.43" r="3.43" transform="translate(120.059 77.181)"/><circle class="a" cx="3.43" cy="3.43" r="3.43" transform="translate(0 102.908)"/><circle class="a" cx="3.43" cy="3.43" r="3.43" transform="translate(24.012 102.908)"/><circle class="a" cx="3.43" cy="3.43" r="3.43" transform="translate(48.024 102.908)"/><circle class="a" cx="3.43" cy="3.43" r="3.43" transform="translate(72.036 102.908)"/><circle class="a" cx="3.43" cy="3.43" r="3.43" transform="translate(96.048 102.908)"/><circle class="a" cx="3.43" cy="3.43" r="3.43" transform="translate(120.059 102.908)"/><circle class="a" cx="3.43" cy="3.43" r="3.43" transform="translate(0 128.635)"/><circle class="a" cx="3.43" cy="3.43" r="3.43" transform="translate(24.012 128.635)"/><circle class="a" cx="3.43" cy="3.43" r="3.43" transform="translate(48.024 128.635)"/><circle class="a" cx="3.43" cy="3.43" r="3.43" transform="translate(72.036 128.635)"/><circle class="a" cx="3.43" cy="3.43" r="3.43" transform="translate(96.048 128.635)"/><circle class="a" cx="3.43" cy="3.43" r="3.43" transform="translate(120.059 128.635)"/><circle class="a" cx="3.43" cy="3.43" r="3.43" transform="translate(0 154.362)"/><circle class="a" cx="3.43" cy="3.43" r="3.43" transform="translate(24.012 154.362)"/><circle class="a" cx="3.43" cy="3.43" r="3.43" transform="translate(48.024 154.362)"/><circle class="a" cx="3.43" cy="3.43" r="3.43" transform="translate(72.036 154.362)"/><circle class="a" cx="3.43" cy="3.43" r="3.43" transform="translate(96.048 154.362)"/><circle class="a" cx="3.43" cy="3.43" r="3.43" transform="translate(120.059 154.362)"/><circle class="a" cx="3.43" cy="3.43" r="3.43" transform="translate(0 180.089)"/><circle class="a" cx="3.43" cy="3.43" r="3.43" transform="translate(24.012 180.089)"/><circle class="a" cx="3.43" cy="3.43" r="3.43" transform="translate(48.024 180.089)"/><circle class="a" cx="3.43" cy="3.43" r="3.43" transform="translate(72.036 180.089)"/><circle class="a" cx="3.43" cy="3.43" r="3.43" transform="translate(96.048 180.089)"/><circle class="a" cx="3.43" cy="3.43" r="3.43" transform="translate(120.059 180.089)"/><circle class="a" cx="3.43" cy="3.43" r="3.43" transform="translate(0 205.816)"/><circle class="a" cx="3.43" cy="3.43" r="3.43" transform="translate(24.012 205.816)"/><circle class="a" cx="3.43" cy="3.43" r="3.43" transform="translate(48.024 205.816)"/><circle class="a" cx="3.43" cy="3.43" r="3.43" transform="translate(72.036 205.816)"/><circle class="a" cx="3.43" cy="3.43" r="3.43" transform="translate(96.048 205.816)"/><circle class="a" cx="3.43" cy="3.43" r="3.43" transform="translate(120.059 205.816)"/></g></svg>