<?xml version="1.0" encoding="utf-8"?>
<!-- Generator: Adobe Illustrator 22.1.0, SVG Export Plug-In . SVG Version: 6.00 Build 0)  -->
<svg version="1.1" id="Layer_1" xmlns="http://www.w3.org/2000/svg" xmlns:xlink="http://www.w3.org/1999/xlink" x="0px" y="0px"
	 viewBox="0 0 153.5 253.5" style="enable-background:new 0 0 153.5 253.5;" xml:space="preserve">
<style type="text/css">
	.st0{fill:#025AE4;}
</style>
<circle class="st0" cx="5.4" cy="5.4" r="5.4"/>
<circle class="st0" cx="33.9" cy="5.4" r="5.4"/>
<circle class="st0" cx="62.5" cy="5.4" r="5.4"/>
<circle class="st0" cx="91" cy="5.4" r="5.4"/>
<circle class="st0" cx="119.6" cy="5.4" r="5.4"/>
<circle class="st0" cx="148.1" cy="5.4" r="5.4"/>
<circle class="st0" cx="5.4" cy="35.7" r="5.4"/>
<circle class="st0" cx="33.9" cy="35.7" r="5.4"/>
<circle class="st0" cx="62.5" cy="35.7" r="5.4"/>
<circle class="st0" cx="91" cy="35.7" r="5.4"/>
<circle class="st0" cx="119.6" cy="35.7" r="5.4"/>
<circle class="st0" cx="148.1" cy="35.7" r="5.4"/>
<circle class="st0" cx="5.4" cy="66" r="5.4"/>
<circle class="st0" cx="33.9" cy="66" r="5.4"/>
<circle class="st0" cx="62.5" cy="66" r="5.4"/>
<circle class="st0" cx="91" cy="66" r="5.4"/>
<circle class="st0" cx="119.6" cy="66" r="5.4"/>
<circle class="st0" cx="148.1" cy="66" r="5.4"/>
<circle class="st0" cx="5.4" cy="96.4" r="5.4"/>
<circle class="st0" cx="33.9" cy="96.4" r="5.4"/>
<circle class="st0" cx="62.5" cy="96.4" r="5.4"/>
<circle class="st0" cx="91" cy="96.4" r="5.4"/>
<circle class="st0" cx="119.6" cy="96.4" r="5.4"/>
<circle class="st0" cx="148.1" cy="96.4" r="5.4"/>
<circle class="st0" cx="5.4" cy="126.7" r="5.4"/>
<circle class="st0" cx="33.9" cy="126.7" r="5.4"/>
<circle class="st0" cx="62.5" cy="126.7" r="5.4"/>
<circle class="st0" cx="91" cy="126.7" r="5.4"/>
<circle class="st0" cx="119.6" cy="126.7" r="5.4"/>
<circle class="st0" cx="148.1" cy="126.7" r="5.4"/>
<circle class="st0" cx="5.4" cy="157.1" r="5.4"/>
<circle class="st0" cx="33.9" cy="157.1" r="5.4"/>
<circle class="st0" cx="62.5" cy="157.1" r="5.4"/>
<circle class="st0" cx="91" cy="157.1" r="5.4"/>
<circle class="st0" cx="119.6" cy="157.1" r="5.4"/>
<circle class="st0" cx="148.1" cy="157.1" r="5.4"/>
<circle class="st0" cx="5.4" cy="187.4" r="5.4"/>
<circle class="st0" cx="33.9" cy="187.4" r="5.4"/>
<circle class="st0" cx="62.5" cy="187.4" r="5.4"/>
<circle class="st0" cx="91" cy="187.4" r="5.4"/>
<circle class="st0" cx="119.6" cy="187.4" r="5.4"/>
<circle class="st0" cx="148.1" cy="187.4" r="5.4"/>
<circle class="st0" cx="5.4" cy="217.8" r="5.4"/>
<circle class="st0" cx="33.9" cy="217.8" r="5.4"/>
<circle class="st0" cx="62.5" cy="217.8" r="5.4"/>
<circle class="st0" cx="91" cy="217.8" r="5.4"/>
<circle class="st0" cx="119.6" cy="217.8" r="5.4"/>
<circle class="st0" cx="148.1" cy="217.8" r="5.4"/>
<circle class="st0" cx="5.4" cy="248.1" r="5.4"/>
<circle class="st0" cx="33.9" cy="248.1" r="5.4"/>
<circle class="st0" cx="62.5" cy="248.1" r="5.4"/>
<circle class="st0" cx="91" cy="248.1" r="5.4"/>
<circle class="st0" cx="119.6" cy="248.1" r="5.4"/>
<circle class="st0" cx="148.1" cy="248.1" r="5.4"/>
</svg>
