<svg xmlns="http://www.w3.org/2000/svg" width="153.505" height="253.461" viewBox="0 0 153.505 253.461"><defs><style>.a{fill:#fff;}</style></defs><g transform="translate(0 0)"><circle class="a" cx="5.355" cy="5.355" r="5.355" transform="translate(0 0)"/><circle class="a" cx="5.355" cy="5.355" r="5.355" transform="translate(28.559 0)"/><circle class="a" cx="5.355" cy="5.355" r="5.355" transform="translate(57.118 0)"/><circle class="a" cx="5.355" cy="5.355" r="5.355" transform="translate(85.677 0)"/><circle class="a" cx="5.355" cy="5.355" r="5.355" transform="translate(114.236 0)"/><circle class="a" cx="5.355" cy="5.355" r="5.355" transform="translate(142.795 0)"/><circle class="a" cx="5.355" cy="5.355" r="5.355" transform="translate(0 30.344)"/><circle class="a" cx="5.355" cy="5.355" r="5.355" transform="translate(28.559 30.344)"/><circle class="a" cx="5.355" cy="5.355" r="5.355" transform="translate(57.118 30.344)"/><circle class="a" cx="5.355" cy="5.355" r="5.355" transform="translate(85.677 30.344)"/><circle class="a" cx="5.355" cy="5.355" r="5.355" transform="translate(114.236 30.344)"/><circle class="a" cx="5.355" cy="5.355" r="5.355" transform="translate(142.795 30.344)"/><circle class="a" cx="5.355" cy="5.355" r="5.355" transform="translate(0 60.688)"/><circle class="a" cx="5.355" cy="5.355" r="5.355" transform="translate(28.559 60.688)"/><circle class="a" cx="5.355" cy="5.355" r="5.355" transform="translate(57.118 60.688)"/><circle class="a" cx="5.355" cy="5.355" r="5.355" transform="translate(85.677 60.688)"/><circle class="a" cx="5.355" cy="5.355" r="5.355" transform="translate(114.236 60.688)"/><circle class="a" cx="5.355" cy="5.355" r="5.355" transform="translate(142.795 60.688)"/><circle class="a" cx="5.355" cy="5.355" r="5.355" transform="translate(0 91.032)"/><circle class="a" cx="5.355" cy="5.355" r="5.355" transform="translate(28.559 91.032)"/><circle class="a" cx="5.355" cy="5.355" r="5.355" transform="translate(57.118 91.032)"/><circle class="a" cx="5.355" cy="5.355" r="5.355" transform="translate(85.677 91.032)"/><circle class="a" cx="5.355" cy="5.355" r="5.355" transform="translate(114.236 91.032)"/><circle class="a" cx="5.355" cy="5.355" r="5.355" transform="translate(142.795 91.032)"/><circle class="a" cx="5.355" cy="5.355" r="5.355" transform="translate(0 121.376)"/><circle class="a" cx="5.355" cy="5.355" r="5.355" transform="translate(28.559 121.376)"/><circle class="a" cx="5.355" cy="5.355" r="5.355" transform="translate(57.118 121.376)"/><circle class="a" cx="5.355" cy="5.355" r="5.355" transform="translate(85.677 121.376)"/><circle class="a" cx="5.355" cy="5.355" r="5.355" transform="translate(114.236 121.376)"/><circle class="a" cx="5.355" cy="5.355" r="5.355" transform="translate(142.795 121.376)"/><circle class="a" cx="5.355" cy="5.355" r="5.355" transform="translate(0 151.72)"/><circle class="a" cx="5.355" cy="5.355" r="5.355" transform="translate(28.559 151.72)"/><circle class="a" cx="5.355" cy="5.355" r="5.355" transform="translate(57.118 151.72)"/><circle class="a" cx="5.355" cy="5.355" r="5.355" transform="translate(85.677 151.72)"/><circle class="a" cx="5.355" cy="5.355" r="5.355" transform="translate(114.236 151.72)"/><circle class="a" cx="5.355" cy="5.355" r="5.355" transform="translate(142.795 151.72)"/><circle class="a" cx="5.355" cy="5.355" r="5.355" transform="translate(0 182.063)"/><circle class="a" cx="5.355" cy="5.355" r="5.355" transform="translate(28.559 182.063)"/><circle class="a" cx="5.355" cy="5.355" r="5.355" transform="translate(57.118 182.063)"/><circle class="a" cx="5.355" cy="5.355" r="5.355" transform="translate(85.677 182.063)"/><circle class="a" cx="5.355" cy="5.355" r="5.355" transform="translate(114.236 182.063)"/><circle class="a" cx="5.355" cy="5.355" r="5.355" transform="translate(142.795 182.063)"/><circle class="a" cx="5.355" cy="5.355" r="5.355" transform="translate(0 212.407)"/><circle class="a" cx="5.355" cy="5.355" r="5.355" transform="translate(28.559 212.407)"/><circle class="a" cx="5.355" cy="5.355" r="5.355" transform="translate(57.118 212.407)"/><circle class="a" cx="5.355" cy="5.355" r="5.355" transform="translate(85.677 212.407)"/><circle class="a" cx="5.355" cy="5.355" r="5.355" transform="translate(114.236 212.407)"/><circle class="a" cx="5.355" cy="5.355" r="5.355" transform="translate(142.795 212.407)"/><circle class="a" cx="5.355" cy="5.355" r="5.355" transform="translate(0 242.751)"/><circle class="a" cx="5.355" cy="5.355" r="5.355" transform="translate(28.559 242.751)"/><circle class="a" cx="5.355" cy="5.355" r="5.355" transform="translate(57.118 242.751)"/><circle class="a" cx="5.355" cy="5.355" r="5.355" transform="translate(85.677 242.751)"/><circle class="a" cx="5.355" cy="5.355" r="5.355" transform="translate(114.236 242.751)"/><circle class="a" cx="5.355" cy="5.355" r="5.355" transform="translate(142.795 242.751)"/></g></svg>