<svg xmlns="http://www.w3.org/2000/svg" xmlns:xlink="http://www.w3.org/1999/xlink" width="845.543" height="724.636" viewBox="0 0 845.543 724.636"><defs><style>.a,.ah,.az,.ba,.k,.l,.n,.o,.t{fill:none;}.b{fill:#eefff1;}.c{fill:#bdefc7;}.d{fill:#00142d;}.e{fill:#f6cbcc;}.f{fill:#ce0f58;}.g{fill:#dda2a5;}.h{fill:#ea65a2;}.i{fill:#ff045c;}.j{fill:#0a93e8;}.k{stroke:#0a93e8;}.ah,.az,.ba,.k,.l,.n,.o,.t{stroke-miterlimit:10;}.l{stroke:#025ae4;stroke-width:3px;}.au,.m{fill:#fff;}.n{stroke:#f6cbcc;}.ah,.az,.ba,.n,.o{stroke-width:2px;}.o{stroke:#dda2a5;}.p{fill:#3f193b;}.q{fill:#87371b;}.r{fill:#682612;}.az,.s{opacity:0.2;}.t{stroke:#51234b;}.u{fill:#381535;}.v{fill:#025ae4;}.w{fill:#044799;}.x{fill:#51234b;}.y{fill:#ee7f3e;}.z{fill:#f5b64a;}.aa{clip-path:url(#a);}.ab{fill:#c8dbd7;}.ac{fill:#f7ce69;}.ad{fill:#baddd4;}.ae{fill:#dceae7;}.af{fill:#151a25;}.ag{fill:#808987;}.ah{stroke:#c8dbd7;stroke-dasharray:7 7 7 7 7 7;}.ai{fill:#fbffd2;}.aj{fill:#d6e0f2;}.ak{fill:#f1c2f9;}.al{clip-path:url(#b);}.am{fill:#c45729;}.an{fill:#903d1b;}.ao{fill:#92e8a5;}.ap{fill:#f4f4cb;}.aq{clip-path:url(#c);}.ar{fill:#281961;}.as{fill:#053272;}.at{opacity:0.1;}.au{font-size:10px;font-family:Nunito-Bold, Nunito;font-weight:700;}.av{fill:#8dd344;}.aw{fill:#f7ee48;}.ax{fill:#f4c1c4;}.ay{opacity:0.15;}.az{stroke:#000;}.ba{stroke:#808987;}.bb{stroke:none;}</style><clipPath id="a"><path class="a" d="M1142.662,1326.3h-756c-3.421,0-5.721-3.014-4-6l66-114a4.506,4.506,0,0,1,4-2h633c1.679,0,3.248.484,4,2l57,114C1148.138,1323.278,1145.96,1326.3,1142.662,1326.3Z" transform="translate(-382.532 -1204.286)"/></clipPath><clipPath id="b"><rect class="a" width="96" height="59" transform="translate(-0.034 -0.471)"/></clipPath><clipPath id="c"><rect class="a" width="79" height="117" transform="translate(-0.455 -0.471)"/></clipPath></defs><g transform="translate(-227.916 -338.172)"><g transform="translate(228.006 337.797)"><g transform="translate(556.683 517.032)"><path class="b" d="M1667.685,1732.36c103.231-21.86,98.629-78.444,145-82s91.774,30.152,65,99-77.205,104.857-156,104S1564.454,1754.221,1667.685,1732.36Z" transform="translate(-1618.368 -1649.673)"/></g><g transform="translate(0 62.635)"><path class="c" d="M495.006,610.862c116.087-38.974,97.571,132.362,9,193s-183.774,32.585-241-46-45.3-207.871,42-240C382.238,489.439,378.919,649.836,495.006,610.862Z" transform="translate(-228.006 -514.777)"/></g><g transform="translate(496.788 73.499)"><path class="c" d="M309.218,610c-116.087-38.974-97.571,133.362-9,194s183.774,32.585,241-46,46.3-207.871-41-240C422.985,489.575,425.3,648.972,309.218,610Z" transform="translate(-228.006 -514.777)"/></g><g transform="translate(61.673 66.153)"><path class="d" d="M1185.793,2132.208a29.083,29.083,0,0,0-7-1c-5.046.009-9.98,6.2,3,13,8.4,4.4,11.908,1.35,13,0,.245-.3,0-1.611,0-2h0Z" transform="translate(-856.466 -1487.642)"/><path class="d" d="M906.607,2049.577a20.909,20.909,0,0,1,6-1c4.455.009,8.462,4.994-3,11-7.42,3.888-11.035,1.192-12,0-.217-.268,0-.655,0-1v-1Z" transform="translate(-691.28 -1438.011)"/><path class="d" d="M778.141,2056.6a20.911,20.911,0,0,0-6-1c-4.456.009-9.463,4.994,2,11,7.42,3.888,11.035,1.192,12,0,.217-.268,0-.655,0-1v-1Z" transform="translate(-612.814 -1442.031)"/><g transform="translate(318.081 72.732)"><path class="e" d="M1269.719,871.776c-6.669-7.6-23.841-6.541-38-7-.982-.032-.925-1.02-1-2l-2-18-23,3,1,19a1.818,1.818,0,0,1-1,2c-7.8,2.73-9.471,5.183-16,8a16.288,16.288,0,0,0-10,15l-3,40c10.574,8.687,26.62,11.367,56,1,19-6.706,45.691,5.477,60-19C1290.483,910.528,1272.087,874.474,1269.719,871.776Z" transform="translate(-1176.473 -788.942)"/><path class="f" d="M1307.4,714.961c.119-.307.754-.782,1-1,1.309-1.156,5.74-4.969,11-4,11.422,2.1,17.515,15.752,10,41-3.89,13.071-4.8,20.027-4,24a1.964,1.964,0,0,1-3,2c-6.953-3.715-17.822-12.525-18-30C1304.18,725.266,1306.639,716.919,1307.4,714.961Z" transform="translate(-1253.156 -708.127)"/><path class="g" d="M1250.03,861.013s6.942.839,12-2c5.355-3.006,11-10,11-10v-2l-23,2Z" transform="translate(-1220.784 -790.179)"/><path class="e" d="M1234.576,719.469c-12.821-2.416-24.584,6.179-27,19s-2.982,37.849,16,41a13.446,13.446,0,0,0,3,0h0s13.49-.654,19-8c5.849-7.8,7.659-20.438,8-24C1255.888,734.708,1247.341,721.875,1234.576,719.469Z" transform="translate(-1194.33 -713.635)"/><path class="h" d="M1234.729,786.03l-5,13c-.412,1.031.891,1.964,2,2h2a3.95,3.95,0,0,0,4-4c.188-5.148.27-13.318-2-12A3.164,3.164,0,0,0,1234.729,786.03Z" transform="translate(-1208.484 -753.196)"/><path class="i" d="M1246.826,711.054s22.483,48.048,37,30C1294.947,727.228,1272.074,691.517,1246.826,711.054Z" transform="translate(-1218.58 -705.22)"/><path class="i" d="M1221.35,719.739s-20.191-7.433-25,10S1222.251,727.253,1221.35,719.739Z" transform="translate(-1188.104 -712.904)"/><path class="i" d="M1250.418,734.316c.1-.5-.483-1.243-1-1-.224.105.225.895,0,1,.053-.273-.053-.727,0-1,.133-.678-.6-1.563-1-1-.1.146-.9.853-1,1-.078.027.061-.07,0,0-.148.171.092-.157,0,0-.06.048.047.916,0,1-.181.328-.819.672-1,1-.026.048.014-.046,0,0-.09.117.086-.122,0,0a8.908,8.908,0,0,1,1-2c.395-.667-.606-1.666-1-1-1.232,2.08-2.787,4.588-2,7,.62,1.9,2.015,3.718,4,4,.476.068,1.31-.511,1-1a5.278,5.278,0,0,1,1-7C1250.863,734.975,1250.8,734.452,1250.418,734.316Z" transform="translate(-1217.172 -721.482)"/><g transform="translate(52.835 32.164)"><path class="e" d="M1319.843,792.223a8.551,8.551,0,0,1-1,4,5.93,5.93,0,0,1-5,3c-3.177-.176-5.209-3.228-5-7s2.823-7.176,6-7S1320.052,788.451,1319.843,792.223Z" transform="translate(-1308.432 -785.553)"/><path class="e" d="M1316.98,816.671s1.1,1.338,3,0,4-5,4-5h-7Z" transform="translate(-1313.569 -801.001)"/></g><path class="j" d="M1263.85,894.22h-8s-23.708,23.1-35,5a69.976,69.976,0,0,0-7,4c-.267.169-5.3,31.781-5,42,.194,6.616,3.311,17.225,6,24q13.827,1.209,37-7c10.426-3.679,29.442,5.23,39-5C1285.744,943.273,1257.779,906.465,1263.85,894.22Z" transform="translate(-1195.604 -818.386)"/><path class="k" d="M1320.613,797.995c.3-.6.426-3.787-2-5-1.939-.969-2.445.746-3,2-.267.6-.485,1.553,0,2,.286.264.271.459,0,1-.6,1.2-2-.1-2,2" transform="translate(-1258.867 -757.66)"/><path class="k" d="M1315.288,815.245s-.312-3.514,2-3,2-1,2-1" transform="translate(-1259.542 -768.911)"/><g transform="translate(13.543 38.498)"><path class="g" d="M1273.653,812.826c.134,2.316-3.228,2.813-5,3s-5.643.3-6-2,3.181-3.79,5-4S1273.519,810.51,1273.653,812.826Z" transform="translate(-1241.951 -806.49)"/><path class="g" d="M1217,804.708c-.287,1.784-2.471,2.247-4,2s-3.288-1.217-3-3,2.471-2.247,4-2S1217.289,802.925,1217,804.708Z" transform="translate(-1210.299 -801.372)"/></g><g class="l" transform="translate(10.246 25.834)"><circle class="bb" cx="7.5" cy="7.5" r="7.5"/><circle class="a" cx="7.5" cy="7.5" r="6"/></g><g class="l" transform="translate(31.246 27.834)"><ellipse class="bb" cx="7.5" cy="8" rx="7.5" ry="8"/><ellipse class="a" cx="7.5" cy="8" rx="6" ry="6.5"/></g><g transform="translate(27.844 101.576)"><path class="m" d="M1272.418,970.172c.857,10.961-5.8,11.953-13,13s-12.607-5.223-13-12,7.079-16.291,13-11S1271.56,959.212,1272.418,970.172Z" transform="translate(-1246.016 -958.914)"/></g><path class="i" d="M1279.469,967.765a29.61,29.61,0,0,0-7,19,14.2,14.2,0,0,0,0,2,15,15,0,0,0,3,0c7.2-1.047,13.857-2.039,13-13C1287.82,967.469,1283.844,968.657,1279.469,967.765Z" transform="translate(-1234.224 -862.931)"/><path class="e" d="M1430.023,921.828l34-59,9,16s-21.174,54.784-30,62-24,1.332-30-2S1430.023,921.828,1430.023,921.828Z" transform="translate(-1317.778 -799.994)"/><g transform="translate(24.944 51.02)"><path class="j" d="M1244.074,837.461c2.781-.1,3.885-1.827,4-4,.021-.4-.44-1.229-1-1-2.413.988-5.427.684-8,1-.6.073-.161.61,0,1C1239.942,836.566,1241.293,837.56,1244.074,837.461Z" transform="translate(-1238.772 -832.647)"/></g><path class="n" d="M1240.056,837.8a30.927,30.927,0,0,0,10-2" transform="translate(-1214.31 -783.464)"/><path class="e" d="M1575.684,796.561c-1.971,1.861-4.039,4.093-6,6-.07-.062.079-.944,0-1h0c-.175-.175-.823.172-1,0-.026-.063.033.06,0,0,.62-.627,1.467-1.438,2-2a61.333,61.333,0,0,0,8-10c1.347-2.2-2.657-4.2-4-2a51.541,51.541,0,0,1-5,7c-.9,1.051-2.022,2.02-3,3-.3.3-.694.708-1,1-.054-.063.061.069,0,0a3.9,3.9,0,0,0,0-1c3.53-3.213,6.105-10.552,8-13,1.557-2.013-1.425-5.036-3-3-1.739,2.247-2.658,5.506-4,8-.577,1.071-3.228,4.974-5,5h0c.177-.282-.177-.719,0-1,1.133-1.8,2.866-3.2,4-5,1.058-1.68,2.053-2.938,2-5-.042-1.639-2.8-3.348-4-2-3.713,4.173-5.658,10.366-9,15h0c-.493.277-.492.75-1,1-.618.3-2.273-.047-3,0-.1-.029.1.016,0,0,.353-1.273.776-2.7,1-4a11.5,11.5,0,0,0-1-8c-1.119-2.1-4.415-.13-4,2,1.056,5.417-1.8,9.37-4,14-.965,2.031-.752,3.763-1,6a23.376,23.376,0,0,1-2,7c-.638,1.48.816,2.8,2,3a8.943,8.943,0,0,0,0,4c.526,1.549,2.309,3.7,4,4,.083.015-.079-.005,0,0-.017.635.568.508,1,1-.086.232-.92.764-1,1-.835,2.443,3.17,3.429,4,1a22.815,22.815,0,0,1,5-8c2.329-2.481,5.408-3.821,8-6,5.575-4.686,10.707-10,16-15C1580.561,797.788,1577.557,794.792,1575.684,796.561Zm-21,12h0C1554.739,808.516,1554.629,808.607,1554.684,808.561Z" transform="translate(-1394.438 -750.727)"/><path class="o" d="M1562.553,823.276c2.524,3.01,1.333,6.9,1,8-.884,2.916-4.843,3.963-5,7-.036.692.868,1.629,1,2" transform="translate(-1405.808 -775.942)"/><path class="o" d="M1597.45,826.158c-1.193-2.679-2.031-4.175-3-5-1.251-1.065-2.654-1.5-4-3-1.04-1.158-1.572-3.086-2-4" transform="translate(-1423.704 -770.824)"/></g><g transform="translate(125.14 60.537)"><path class="p" d="M905.228,843.856c-.135-1.665-1.192-2.559-2-4-.9-1.606-2.326-4.041-2-6,.35-2.106-1.877-3.176-3-2-1.382-.856-3.315.025-5,1-2.648,1.532-4.453,2.919-5,6-.518,2.912-1.564,6.057-1,9,1.148,5.991,9.257,7.966,14,5C903.895,851.188,905.471,846.851,905.228,843.856Z" transform="translate(-810.041 -768.827)"/><g transform="translate(0 8.842)"><path class="q" d="M721.959,848.672c6.611-7.529,30.963-7.545,45-8a2.294,2.294,0,0,0,2-2l1-17,19,2-3,17a1.829,1.829,0,0,0,1,2c7.73,2.707,15.527,7.208,22,10a16.444,16.444,0,0,1,10,15l3,40c-10.483,8.612-26.874,11.278-56,1-18.84-6.648-36.815-26.735-51-51C716.894,854.215,719.611,851.347,721.959,848.672Z" transform="translate(-706.772 -771.485)"/><path class="r" d="M872.361,831.471s-3.229.394-7-3c-3.993-3.594-8-11-8-11v-1l17,4Z" transform="translate(-792.174 -768.283)"/><path class="q" d="M849.253,698.032c12.388-3.718,25.282,3.612,29,16s.388,38.282-12,42a12.646,12.646,0,0,1-3,0h0s-13.8.667-20-6c-6.578-7.077-9.293-19.524-10-23A23.566,23.566,0,0,1,849.253,698.032Z" transform="translate(-777.066 -696.844)"/><path class="r" d="M911.81,763.935l4,11c.277.851-.922,1.2-2,1h-2c-2.19-.409-4.187-2.307-4-4,.427-3.87,1.958-9.447,4-8C912.065,764.116,911.728,763.684,911.81,763.935Z" transform="translate(-822.623 -736.748)"/><g transform="translate(51.346 26.305)"><path class="q" d="M822.668,769.426a8.633,8.633,0,0,0,1,4,5.976,5.976,0,0,0,5,3,6.725,6.725,0,0,0,6-7c-.207-3.739-3.851-7.175-7-7S822.462,765.687,822.668,769.426Z" transform="translate(-822.828 -762.543)"/><path class="q" d="M832.708,793.74s-1.121.326-3-1a10.666,10.666,0,0,1-3-4l6-1Z" transform="translate(-824.868 -777.857)"/></g><path class="s" d="M840,1019.808c-9.138.8-21.662-1.588-37-7-9.164-3.234-17.454-9.532-26-18l63,23C839.826,1018.257,840.167,1019.389,840,1019.808Z" transform="translate(-743.813 -875.621)"/><path class="t" d="M830.042,775.161c-.3-.6-1.405-3.8,1-5,1.922-.961,2.45.757,3,2,.265.6.48.557,0,1a2.493,2.493,0,0,0,0,2c.6,1.192,2-.086,2,2" transform="translate(-775.355 -740.473)"/><path class="t" d="M837.818,791.314s.292-2.509-2-2-2-1-2-1" transform="translate(-778.131 -751.627)"/><g transform="translate(82.216 44.965)"><path class="u" d="M903.9,810.371a13.6,13.6,0,0,0,4,0c.161-.064.076-.844,0-1h0c-.068-.14-.855-.056-1,0-.891.349-4.069,1.81-7,0-.138-.085.091-.134,0,0h0c-.094.139-.142-.088,0,0A9.094,9.094,0,0,0,903.9,810.371Z" transform="translate(-899.928 -809.149)"/></g><g transform="translate(72.611 32.584)"><path class="r" d="M875.514,787.22c.262,2.284,4.238,2.118,6,2s5.042-.691,5-3-4.188-2.1-6-2S875.252,784.936,875.514,787.22Z" transform="translate(-875.938 -781.617)"/><path class="r" d="M930.443,781.829c.285,1.768,2.484,1.245,4,1s4.285-1.232,4-3-2.484-2.245-4-2S930.158,780.061,930.443,781.829Z" transform="translate(-908.867 -778.226)"/></g><path class="v" d="M832.761,921.805c.3-10.131-5-41-5-41l-7-4c.176,16.586-47-5-47-5l-10,1c6.019,12.14,1.062,31.175-4,45,.043.047.957-.047,1,0h-1s-6.861,23.666-5,62c.616,12.7,75.978,4.188,73-4-2.738-7.53-1.185-27.767-1-31C829.4,938.066,832.575,928.088,832.761,921.805Z" transform="translate(-730.573 -801.617)"/><path class="q" d="M702.773,912.836c-1.76,2.359-12.583,37.035-7,91l26-3s-2.839-42,2-58S703.01,912.518,702.773,912.836Z" transform="translate(-694.586 -826.649)"/></g><path class="w" d="M702.132,912.18l4,4v-2Z" transform="translate(-698.944 -817.151)"/><path class="w" d="M779.607,946.574h4s-1.527-.309-2-1a22.509,22.509,0,0,1-1-3A30.458,30.458,0,0,0,779.607,946.574Z" transform="translate(-745.42 -835.544)"/><path class="v" d="M953.041,905.036c-3.186-6.272-9.242-9.753-16-11h0s2.386,13.012,4,25c.737-.124,1.351-.911,2-1,1.957-.268,4.046.289,6,0,2.746-.406,5.777-.492,6-4A18.069,18.069,0,0,0,953.041,905.036Z" transform="translate(-839.853 -806.007)"/><path class="m" d="M796.954,877.805c3.184,1.433,2.8,3.844,6,6,4.8,3.235,9.211.753,17,3,4.379,1.263,4.833,3.744,7,3,2.459-.844,2.711-3.892,6-6,2.267-1.453,3.44-.484,5-2,.745-.725,1.954-.984,2-2l-5-3c.176,16.586-47-5-47-5l-10,1c.152.306.862.685,1,1a11.814,11.814,0,0,0,8,4C790.852,878.242,792.965,876.009,796.954,877.805Z" transform="translate(-744.767 -792.776)"/><path class="v" d="M737.7,883.353a52.5,52.5,0,0,0-3-9,8.288,8.288,0,0,0-2-3c-1.166-.935-2.587-.082-4,0a37.549,37.549,0,0,0-16,5,53.176,53.176,0,0,0-7,4c-2.286,1.7-5.45,3.851-5,7,.188,1.315,16.122,3.827,21,6,4.124,1.837,11.182,3.39,13,8,.629,1.6,3.662,2.183,4,0A45.283,45.283,0,0,0,737.7,883.353Z" transform="translate(-698.514 -792.324)"/><path class="x" d="M848.9,687.791c-2.192-.252-4.09,1.483-6,0-1.633-1.268-2.313-3.679-4-5-3.192-2.5-8.365-2.764-12-1-.183-.115.183.109,0,0-.058-.375-.593-.678-1-1-5.418-4.287-12.094-7.51-19-6a15.1,15.1,0,0,0-8,5c-.918,1.224-.477,2.581-1,4-.671,1.819-2.108,2.514-4,3-3.227.83-6.915.636-10,2-2.905,1.284-4.591,4.122-6,7a17.819,17.819,0,0,0-2,9c.2,3.631,1.273,5.935,4,8,.626.474,2.174,1.109,2,2-.129.662-1.539,1.57-2,2a9.775,9.775,0,0,0-3,4c-1.143,3.488,1.655,6.125,5,7-.022.476-.984,1.525-1,2-.009.249.009-.249,0,0-2.06,3.464-3.1,7.206-2,11-.127.182-.86.822-1,1-2.408,3.053-4.048,6.044-2,10,2.094,4.043,5.813,5.559,10,5,2.534-.339,5.428-1.065,8-1a35.894,35.894,0,0,1,8,1c3.762.995,8.34,1.646,10-3,.305-.855,1.195-2.107,1-3-.272-1.245-.52-1.717,0-3a10.511,10.511,0,0,0,1-6c-.358-2.575-1.777-4.729-3-7a8.747,8.747,0,0,1-1-5,11.676,11.676,0,0,1,1-3c.179-.4.867-.594,1-1,.064-.078-.063.079,0,0a16.507,16.507,0,0,0,3-6c.581-2.638-.268-4.5-1-7-.3-1.021-1-2.036-1-3,1-1.08,2.046-2.808,3-4,.893.3,2.041,1.136,3,1,1.8-.255,2.892-1.659,4-3a10.457,10.457,0,0,0,2-2,13.74,13.74,0,0,0,1,1,4.977,4.977,0,0,0,8-2c.03-.07-.023.069,0,0a10.481,10.481,0,0,0,8,3c.706-.048,1.377.278,2,0a6.86,6.86,0,0,0,5-2,11.534,11.534,0,0,0,5-5A6.53,6.53,0,0,0,848.9,687.791Z" transform="translate(-742.714 -674.762)"/><path class="s" d="M847.537,752.433a11.588,11.588,0,0,0-7,3,6.644,6.644,0,0,0-1,7c.423.944.556,1.066,1,2,1.115,2.346.218,5.706-1,8s-2.8,3.7-4,6a6.917,6.917,0,0,0,0,6c.694,1.246,2.356,1.727,3,3,1.094,2.164-.615,5.01-2,7s-3.284,4.943-2,7c.874,1.4,3.376,1.705,5,2,1.489.271,2.491-.12,4,0,.219.017.779-.012,1,0,1.651-.444,2.292-1.02,3-3,.305-.855,1.195-2.107,1-3-.272-1.245-.52-1.717,0-3a10.513,10.513,0,0,0,1-6c-.358-2.575-1.777-4.729-3-7a8.746,8.746,0,0,1-1-5,11.676,11.676,0,0,1,1-3c.179-.4.867-.594,1-1,.064-.078-.063.079,0,0a16.5,16.5,0,0,0,3-6c.581-2.638-.268-4.5-1-7-.3-1.021-1-2.036-1-3,1-1.08,2.046-2.808,3-4A21.63,21.63,0,0,0,847.537,752.433Z" transform="translate(-778.35 -721.404)"/></g><g transform="translate(0 272.417)"><path class="y" d="M575.061,1497.131h33l-16,100a5,5,0,0,1-5,4h0c-2.534,0-3.806-2.474-4-5Z" transform="translate(-497.734 -1379.981)"/><path class="y" d="M2068.179,1497.131h24l-12,101c-.213,1.775-1.212,3-3,3h0c-1.872,0-3.893-2.131-4-4Z" transform="translate(-1392.853 -1379.981)"/><path class="y" d="M0,0H764a0,0,0,0,1,0,0V9a0,0,0,0,1,0,0H9A9,9,0,0,1,0,0V0A0,0,0,0,1,0,0Z" transform="translate(0.327 118.15)"/><path class="z" d="M1141.366,1327.1c-251.032-.861-503-.344-754-1-4.548-.011-6.24-2.054-4-6,21.289-37.492,43.4-76.484,65-114,1.049-1.823,1.895-2,4-2,211.138-.4,421.923.409,633,0,2.238,0,3.006,1.005,4,3,18.6,37.321,37.744,75.746,56,113C1147.282,1324.008,1145.751,1327.113,1141.366,1327.1Z" transform="translate(-382.04 -1203.948)"/><g transform="translate(0.197 0.135)"><g class="aa"><g transform="translate(26.014 -14.409)"><g transform="translate(0 65.641)"><path class="y" d="M512.619,1425.024h-4c.39-20.6-1.1-38.218-6-52a59.969,59.969,0,0,0-18-26c-16.807-14.321-36.8-11.038-37-11v-3a48.179,48.179,0,0,1,39,11C504.085,1358.906,513.355,1386.2,512.619,1425.024Z" transform="translate(-447.503 -1332.241)"/></g><g transform="translate(6.94 48.471)"><path class="y" d="M549.013,1392.311c-3.436-24.09-9.4-44.136-19-60a86.5,86.5,0,0,0-29-29c-18.981-11.661-35.827-11.011-36-11v-3c.745-.052,18.164-1.186,38,11,11.616,7.136,22.093,17.94,30,31,9.831,16.237,16.5,36.477,20,61Z" transform="translate(-464.837 -1289.359)"/></g><g transform="translate(38.499 3.594)"><path class="y" d="M672.274,1344.1c-15.7-.8-32.05-10.467-49-28-13.421-13.882-27.336-32.251-41-56-23.219-40.354-38.849-81.6-39-82l3-1a670.273,670.273,0,0,0,39,81c13.531,23.512,26.764,42.312,40,56,16.369,16.928,32.129,26.244,47,27Z" transform="translate(-543.657 -1177.275)"/></g><g transform="translate(71.335)"><path class="y" d="M691.45,1310.722c-12.522-5.631-24.35-16.842-34-33-7.653-12.814-13.467-28.146-19-47a426.924,426.924,0,0,1-13-62h3a433.243,433.243,0,0,0,13,61c5.457,18.582,11.488,34.427,19,47,9.305,15.574,20.088,25.644,32,31Z" transform="translate(-625.669 -1168.298)"/></g><g transform="translate(90.545 11.772)"><path class="y" d="M956.218,1270.351c-34.528,0-68.951-.337-102-1-54.2-1.087-97.595-6.076-128-16-23.152-7.556-38.98-17.849-47-30-9.026-13.677-4.185-25.525-4-26l3,2c-.159.417-4.163,9.729,4,22,7.659,11.514,22.534,21.69,45,29,30.1,9.794,73.209,14.921,127,16,33.021.663,67.5,1,102,1,175.316,0,351.883-6.913,354-7v3C1308.1,1263.438,1131.6,1270.351,956.218,1270.351Z" transform="translate(-673.647 -1197.7)"/></g><g transform="translate(107.731 7.777)"><path class="y" d="M966.955,1249.368c-91.912,0-150.378-3.576-176-9-21.694-4.592-39.65-9.889-52-17-9.711-5.592-16.509-12.143-20-19-4.771-9.371-1.128-16.707-1-17l3,2-2-1,2,1c-.1.243-3.138,5.988,1,14,5.29,10.243,21.584,23.964,69,34,44.278,9.373,188.232,9.074,301,7,122.257-2.249,235.871-6.954,237-7v3c-1.13.046-114.709,4.75-237,7C1045.314,1248.226,1003.4,1249.368,966.955,1249.368Z" transform="translate(-716.57 -1187.721)"/></g><g transform="translate(83.15 14.369)"><path class="y" d="M787.144,1343.24c-29.412-.394-54.555-8.494-75-23-16.361-11.608-29.141-26.963-39-47-16.738-34.019-17.992-68.658-18-69h3c.008.336,1.541,33.609,18,67,9.626,19.53,22.079,35.718,38,47,19.9,14.1,45.263,21.616,74,22Z" transform="translate(-655.178 -1204.186)"/></g><g transform="translate(126.258 76.84)"><path class="y" d="M780.7,1399.8c-4.91,0-8.921-1.362-12-4-2.228-1.91-5.339-5.083-6-12h3c.559,5.847,3.219,8.475,5,10,4.139,3.548,11.734,4.512,19,2,6.64-2.3,10.961-7,12-12,1.873-9.012-6.1-18.171-14-20-8.014-1.856-16.245,2.371-20,10l-3-1c4.4-8.939,14.574-14.183,24-12,11.509,2.666,17.872,14.994,16,24-1.27,6.113-6.292,11.334-14,14C787.427,1399.928,783.827,1399.8,780.7,1399.8Z" transform="translate(-762.843 -1360.212)"/></g><g transform="translate(132.643 85.763)"><path class="y" d="M794.262,1406.159c-.284,0-.71.015-1,0-5.327-.29-10.041-3.213-14-8l2-2c3.4,4.107,7.549,6.759,12,7,2.681.144,5.535-.574,7-2,2.455-2.392,2.887-7.714,1-11-1.2-2.1-3.22-3.327-6-4a16.1,16.1,0,0,0-12,2l-1-3a15.62,15.62,0,0,1,13-2c3.62.876,7.363,3.148,9,6a11.807,11.807,0,0,1-2,14A11.269,11.269,0,0,1,794.262,1406.159Z" transform="translate(-778.789 -1382.499)"/></g><g transform="translate(103.437 62.444)"><path class="y" d="M750.524,1361.237a62.4,62.4,0,0,1-13-4c-17.019-7.325-26.883-21.515-32-32l3-1c4.88,10,13.875,23.06,30,30a57.141,57.141,0,0,0,12,4Z" transform="translate(-705.845 -1324.257)"/></g><g transform="translate(118.958 69.502)"><path class="y" d="M876.768,1377.807c-1.024,0-1.9.024-3,0-17.106-.366-40.357-.946-65-14-3.943-2.089-6.907-4.064-10-6-6.385-4-12.336-7.385-22-10a85.6,85.6,0,0,0-32-2v-3a87.8,87.8,0,0,1,33,2c10.116,2.738,15.676,6.042,22,10,3.045,1.906,6.158,3.965,10,6,23.983,12.7,47.211,13.641,64,14,13.187.281,19.894-1.08,29-3,6.1-1.286,13.856-2.705,24-4,23.647-3.017,39.326-2.637,61-1,5.774.436,11.234,1.573,18,2,25.116,1.585,54.606.757,114,0,37.758-.482,59.913-1.016,79-2,19.656-1.013,36.192-2.189,65-2,34.139.225,68.7,2.082,102,5v3c-33.212-2.91-67.945-4.776-102-5-28.717-.189-45.393.989-65,2-19.115.985-41.182,1.518-79,2-59.473.758-88.765,1.592-114,0-6.785-.428-13.216-.563-19-1-21.489-1.623-36.669-2.978-60,0-10.018,1.278-16.961,2.727-23,4A115.433,115.433,0,0,1,876.768,1377.807Z" transform="translate(-744.61 -1341.886)"/></g></g></g></g></g><rect class="ab" width="153" height="103" rx="6" transform="translate(100.327 184.566)"/><rect class="ab" width="147" height="100" rx="6.119" transform="translate(303.327 190.566)"/><rect class="ab" width="140" height="96" rx="5.688" transform="translate(519.327 194.566)"/><g transform="translate(286.62 17.059)"><path class="v" d="M1165.6,566.679c-20.8,1.281-42.4,3.889-63,7-3.333.5-5.345,1.736-5,5,1.132,10.716,3.009,23.153,3,34,0,3.3,1.581,4.221,5,4,14.822-.959,29.9-4.24,45-5,1.457,1.2,2.555,2.887,4,4a1.576,1.576,0,0,0,2,0c1.287-1.385,2.695-3.526,4-5,2.922-.648,6.3-1.258,9-2,2.942-.809,5.372-1.748,5-5-1.221-10.678-3.149-22.391-4-33C1170.344,567.448,1168.968,566.471,1165.6,566.679Z" transform="translate(-1097.896 -566.172)"/><g transform="translate(8.213 12.066)"><path class="m" d="M1173.9,598.749c-17.869,2.026-36.1,4.518-54,6-.906.075-.947-.323-1-1h0c-.054-.678.1-1.919,1-2,17.84-1.6,35.169-3.011,53-5,.9-.1,1.924.325,2,1h0C1174.979,598.424,1174.807,598.647,1173.9,598.749Z" transform="translate(-1118.409 -596.308)"/><g transform="translate(0.921 10.607)"><path class="m" d="M1158.282,625.634c-12.913.3-23.26.573-36,3a1.658,1.658,0,0,1-2-1h0c-.138-.683.027-.809,1-1a206.121,206.121,0,0,1,37-4c.986-.022.988.334,1,1h0C1159.294,624.3,1159.257,625.612,1158.282,625.634Z" transform="translate(-1120.71 -622.8)"/></g><g transform="translate(1.8 18.19)"><path class="m" d="M1167.6,643.99a366.555,366.555,0,0,1-43,5c-.91.055-1.965-.317-2-1h0a2.61,2.61,0,0,1,2-2c14.542-.912,28.641-1.5,43-4,.892-.155.877.339,1,1h0C1168.723,643.651,1168.5,643.83,1167.6,643.99Z" transform="translate(-1122.906 -641.739)"/></g></g></g><g transform="translate(168.38)"><path class="ac" d="M807.53,524.132c20.365-2.361,40.332,3.074,61,1,3.344-.336,3.766,1.331,4,5,.768,12.046.995,24.865,1,37,0,3.7-1.764,5.171-5,5-14.032-.743-29.073-3.329-43-2-1.269,1.332-2.69,2.72-4,4-.5.489-.452.456-1,0-1.435-1.194-2.607-2.705-4-4-2.9-.591-7.242-.351-10-1-3.006-.708-4.134-1.585-4-5,.441-11.213.1-23.783,0-35C802.5,525.716,804.234,524.514,807.53,524.132Z" transform="translate(-802.583 -523.565)"/><g transform="translate(8.925 15.148)"><g transform="translate(0.781)"><path class="m" d="M828.064,563.818c17.2.783,34.8,1.738,52,2,.87.013.993-.349,1-1h0c.007-.65-.132-.981-1-1-17.148-.375-34.836-1.25-52-2-.868-.038-.971.35-1,1h0C827.035,563.467,827.194,563.778,828.064,563.818Z" transform="translate(-826.823 -561.4)"/></g><g transform="translate(0.924 7.978)"><path class="m" d="M828.279,583.766c12.357-.546,21.672.5,34,2,.93.113,1.912-1.338,2-2h0c.088-.661-.059-.881-1-1-12.477-1.582-22.5-1.568-35-1-.943.043-1.032.363-1,1h0C827.31,583.4,827.346,583.807,828.279,583.766Z" transform="translate(-827.181 -581.326)"/></g><g transform="translate(0 15.981)"><path class="m" d="M825.9,603.751a361.023,361.023,0,0,0,42,2c.874-.006,1.011-1.345,1-2h0c-.01-.655-.133-1-1-1-13.953.066-28.12.461-42-1-.863-.091-.925.36-1,1h0C824.82,603.39,825.026,603.655,825.9,603.751Z" transform="translate(-824.874 -601.314)"/></g></g></g><g transform="translate(368.495 328.757)"><rect class="ad" width="17" height="24" transform="translate(5.832 -0.19)"/><rect class="ad" width="28" height="7" rx="3.5" transform="translate(-0.168 22.81)"/><path class="s" d="M1333.441,1372.408h-17v6l17-2Z" transform="translate(-1310.609 -1361.598)"/></g><rect class="ae" width="186" height="126" rx="10.15" transform="translate(289.327 213.566)"/><rect class="m" width="176" height="114" transform="translate(295.327 219.566)"/><rect class="af" width="35" height="114" transform="translate(295.327 219.566)"/><rect class="ab" width="16" height="3" rx="1.5" transform="translate(300.327 225.566)"/><rect class="ag" width="12" height="3" rx="1.5" transform="translate(344.327 233.566)"/><rect class="ag" width="14" height="3" rx="1.5" transform="translate(385.327 233.566)"/><rect class="ag" width="8" height="3" rx="1.5" transform="translate(426.327 233.566)"/><rect class="ab" width="20" height="1" rx="0.5" transform="translate(300.327 233.566)"/><rect class="ab" width="12" transform="translate(300.327 239.566)"/><rect class="ab" width="33" height="21" rx="4.808" transform="translate(344.327 241.566)"/><rect class="ab" width="30.111" height="16.531" rx="4.808" transform="matrix(0.996, -0.09, 0.09, 0.996, 330.508, 281.16)"/><rect class="ab" width="33" height="21" rx="4.808" transform="translate(385.327 241.566)"/><g class="ah" transform="translate(426.327 241.566)"><rect class="bb" width="33" height="21" rx="4.808"/><rect class="a" x="1" y="1" width="31" height="19" rx="3.808"/></g><path class="s" d="M6,0h7a6,6,0,0,1,6,6V6a0,0,0,0,1,0,0H0A0,0,0,0,1,0,6V6A6,6,0,0,1,6,0Z" transform="translate(368.327 207.566)"/><path class="s" d="M8,0h3a8,8,0,0,1,8,8V8a0,0,0,0,1,0,0H0A0,0,0,0,1,0,8V8A8,8,0,0,1,8,0Z" transform="translate(167.327 207.566)"/><rect class="ai" width="175" height="117" transform="translate(508.327 213.566)"/><rect class="aj" width="96" height="59" transform="translate(508.327 213.566)"/><g transform="translate(502.71 209.144)"><rect class="ae" width="187" height="126" rx="10.149" transform="translate(-0.383 0.422)"/><rect class="ak" width="175" height="117" transform="translate(5.617 4.422)"/><g transform="translate(5.65 4.893)"><g class="al"><g transform="translate(17.311 7.864)"><path class="am" d="M1701.9,1166.115c2.885-4.158,14.983-5.966,22-7,.487-.072,1.018-.509,1-1l-1-9h10l-1,9c-.027.395.615.913,1,1,4.035.914,8.591,1.971,12,3,5.455,1.648,6,8,6,8l3,19c-4.765,4.923-11.795,7.484-27,4-9.836-2.254-20.488-10.639-29-22A27.954,27.954,0,0,1,1701.9,1166.115Z" transform="translate(-1697.247 -1120.451)"/><path class="r" d="M1773.552,1153.434a5.17,5.17,0,0,1-4-1,34.208,34.208,0,0,1-5-5v-1l9,1Z" transform="translate(-1736.897 -1118.77)"/><path class="am" d="M1756.909,1085.673a12.16,12.16,0,0,1,15,8c1.863,6.261.261,19.137-6,21-.454.135-.526-.014-1,0h0s-6.878.375-10-3c-3.314-3.582-5.647-10.243-6-12C1747.1,1093.436,1750.675,1087.528,1756.909,1085.673Z" transform="translate(-1727.254 -1082.008)"/><path class="r" d="M1791.557,1124.339l2,5c.188.411.552,1.039,0,1h-2a2.23,2.23,0,0,1-2-2c-.008-1.966.892-4.609,2-4C1791.695,1124.416,1791.5,1124.218,1791.557,1124.339Z" transform="translate(-1751.901 -1105.675)"/><path class="s" d="M1767.3,1249.106c-4.539.926-9.993.834-18-1a38.154,38.154,0,0,1-15-7l33,8C1767.24,1249.341,1767.361,1248.886,1767.3,1249.106Z" transform="translate(-1718.647 -1175.442)"/><g transform="translate(31.08 20.492)"><path class="an" d="M1772.147,1136.593c.263,1.131,2.122,1.161,3,1s3.154-.844,3-2-2.1-1.156-3-1S1771.885,1135.462,1772.147,1136.593Z" transform="translate(-1772.572 -1132.421)"/><path class="an" d="M1799.449,1131.137c.245.871,1.253.21,2,0s2.245-.129,2-1a1.622,1.622,0,0,0-2-1C1800.7,1129.346,1799.2,1130.266,1799.449,1131.137Z" transform="translate(-1788.874 -1128.964)"/></g><path class="ao" d="M1765.421,1199.11c-.433-5.1-5-20-5-20l-4-2c1.041,8.313-24,0-24,0l-4,1c3.717,5.746,1.745,15.772,0,23h0s-2.136,12.871,1,32c1.039,6.34,38.964-3.062,37-7-1.807-3.621-2.907-13.367-3-15C1764.358,1207.577,1765.688,1202.273,1765.421,1199.11Z" transform="translate(-1714.765 -1137.446)"/><path class="am" d="M1696.6,1203.658c-.748,1.285-3.9,19.242,2,46l12-4s-3.508-20.691-2-29S1696.7,1203.485,1696.6,1203.658Z" transform="translate(-1694.947 -1152.994)"/><path class="x" d="M1767.971,1081.448c-2.862-2.044-6.881-.236-10-1-12.266-8.3-23.418,8.231-18,15,3.432,4.286,8.31,1.491,12-3a7,7,0,0,0,3-1c.6-.313,1.38-.748,2-1,1.025-.416.961-.234,2,0,3.243.731,7.552,1.775,10-1A5.582,5.582,0,0,0,1767.971,1081.448Z" transform="translate(-1721.316 -1077.783)"/><g transform="translate(19.679 16.082)"><path class="am" d="M1744.073,1121.532a4.83,4.83,0,0,0,1,2,1.815,1.815,0,0,0,2,1,2.891,2.891,0,0,0,3-3c-.1-1.889-1.409-4.084-3-4S1743.972,1119.643,1744.073,1121.532Z" transform="translate(-1744.096 -1117.949)"/><path class="am" d="M1749.1,1134.27s-.052-.328-1-1a12.426,12.426,0,0,1-2-2h3Z" transform="translate(-1745.119 -1125.688)"/></g><path class="t" d="M1747.53,1124.17c-.15-.3-.216-2.4,1-3,.972-.483.723.371,1,1,.133.3.243.777,0,1a1.238,1.238,0,0,0,0,1c.3.6,1-.053,1,1" transform="translate(-1726.375 -1104.005)"/></g></g></g><g transform="translate(5.65 63.324)"><rect class="m" width="96" height="58" transform="translate(-0.034 0.098)"/><g transform="translate(21.863 35.538)"><path class="e" d="M1744.419,1304.4c-1.7-.176-4.23.2-6,0s-2.894-1.066-3-3c-.136-2.494.078-6.388,0-9-3.135-.019-5.861,0-9,0-.047,3.16.092,6.919,0,10a2.252,2.252,0,0,1-2,2c-2.383.195-5.729-.215-8,0-6.383.606-9.2,3.88-10,10-.048.361.036.607,0,1,16.293.01,32.707,0,49,0-.033-.394.045-.637,0-1C1754.656,1308.254,1750.724,1305.05,1744.419,1304.4Z" transform="translate(-1706.316 -1292.837)"/><path class="s" d="M1756.249,1299.674c1.145,1.479,3.572,2.982,5,3s3.54.263,4-1-.28-3.606,0-5c-3.189-.028-5.84.009-9,0C1756.271,1297.712,1756.177,1298.622,1756.249,1299.674Z" transform="translate(-1736.146 -1295.114)"/></g><path class="j" d="M1732.388,1321.144v6c-.057.628-.7.465-1,1l-2,4h33l-3-4a6.394,6.394,0,0,1-1-3l-1-4h-3v3c0,1.553-.626,2-2,2h-14c-1.457,0-2-1.352-2-3v-2Z" transform="translate(-1698.421 -1274.045)"/><g transform="translate(33.802 9.614)"><path class="g" d="M1744.55,1274.684l1,6-2-3c-.413-.626-.64-1.695,0-2Z" transform="translate(-1740.386 -1256.2)"/><path class="g" d="M1790.466,1276.16l-1,4,2-2c.413-.56.64-1.726,0-2Z" transform="translate(-1768.302 -1256.676)"/><g transform="translate(4.447 8.858)"><path class="e" d="M1764.958,1260.839c-.252,6.049-2.492,11.732-10,11-7.194-.7-7.322-4.306-8-10s3.037-12.172,9-12S1765.21,1254.79,1764.958,1260.839Z" transform="translate(-1747.24 -1250.214)"/></g><path class="g" d="M1767.266,1278.737l-1,3c-.23.621.252,1.168,1,1h1c.417-.093,1.085-.645,1-1l-1-3c-.028-.12-.855.015-1,0h0C1767.1,1278.721,1767.315,1278.606,1767.266,1278.737Z" transform="translate(-1754.102 -1258.253)"/><path class="i" d="M1762.3,1253.573c.608.094.971-2.584,1-3a7.632,7.632,0,0,0-1-3c-.066-.162.077.152,0,0,.007-.018-.006.018,0,0,.641-1.783-.918-3.412-1-5-.09-1.743.1-2.479-1-4a11.022,11.022,0,0,0-4-3c-.794-.364-1.125-1.015-2-1a8.759,8.759,0,0,0-1,0c.126-.368-.077-.7,0-1,.689-2.7-1.645-4.3-4-5a6.437,6.437,0,0,0-7,2,4.274,4.274,0,0,0-1,3c.033.626-.31,1.455,0,2,.207.366.942.574,1,1-1.568.39-3.044.464-4,2a6.77,6.77,0,0,0-1,4,6.25,6.25,0,0,1-1,3c-.339.582.008.31,0,1-.036,2.985,3.493,4.2,5,2,1.052-1.537.676-3.336,1-5,.346-1.772,1.5-1.742,3-2,.336-.057.8.174,1,0a20.669,20.669,0,0,0,3,2,35.558,35.558,0,0,0,7,3c2.244.763,3.724,2.076,3,5-.479,1.934-.557,4.6,2,5C1763.253,1256.878,1764.272,1253.88,1762.3,1253.573Z" transform="translate(-1736.135 -1228.09)"/></g></g><rect class="ap" width="79" height="117" transform="translate(101.617 4.422)"/><g transform="translate(102.071 4.893)"><g class="aq"><g transform="translate(7.648 33.844)"><path class="q" d="M1976.529,1248.9c-3.452-5.092-18.576-6.752-27-8-.584-.086-1.024-.4-1-1l1-11h-12l1,11c.031.484-.536.891-1,1-4.847,1.133-9.9,2.727-14,4-6.556,2.038-7,9-7,9l-5,24c5.708,6.027,14.73,9.32,33,5,11.818-2.795,24.744-14.036,35-28A31.676,31.676,0,0,0,1976.529,1248.9Z" transform="translate(-1911.631 -1194.211)"/><path class="r" d="M1976.452,1242.1a5.135,5.135,0,0,0,4,2c2.609,0,7-4,7-4v-3h-11Z" transform="translate(-1950.554 -1199.415)"/><g transform="translate(15.136 18.222)"><path class="r" d="M1949.2,1192.643a3.973,3.973,0,0,0,1,2c.737,1.054,1.783,2.114,3,2,1.947-.181,3.216-2.688,3-5s-2.054-3.182-4-3S1948.98,1190.331,1949.2,1192.643Z" transform="translate(-1949.434 -1188.179)"/><path class="r" d="M1956.62,1207.047a1.581,1.581,0,0,1-2,0,19.141,19.141,0,0,1-3-3h4Z" transform="translate(-1950.858 -1197.583)"/></g><path class="ar" d="M1957.41,1146.618c-4.005.17-8.487.458-11,4-1.958,2.76-1.926,5.965-1,9,.111.544.83,1.468,1,2a4.361,4.361,0,0,1,0,3c-.813,2.442,3.185,4.447,4,2a7.769,7.769,0,0,0,0-4,1.18,1.18,0,0,0,0-1c-.273-.65-.726-1.237-1-2a9.219,9.219,0,0,1,0-2,6.437,6.437,0,0,1,3-5c.162-.02-.17.062,0,0,1.935-.7,4.064-1.3,6-2C1960.746,1149.768,1959.457,1146.531,1957.41,1146.618Z" transform="translate(-1931.513 -1144.933)"/><path class="q" d="M1970.086,1150.871c-8.149-1.42-15.477,3.109-17,11a31.849,31.849,0,0,0,1,15c.178.787.784,2.2,1,3,.038.252-.1-.2,0,0a21.837,21.837,0,0,0,1,2c1.276,3.372,4.272,5.367,8,6a12.681,12.681,0,0,0,7-1,19.912,19.912,0,0,0,6-5c3.708-4.821,4.787-12.81,5-15C1983.542,1159.017,1978.2,1152.286,1970.086,1150.871Z" transform="translate(-1936.188 -1147.187)"/><path class="ar" d="M1975.085,1144.354c-5.464-2.142-13.471-2.057-18,2-.5-.045-.554-.542-1,0-2.318,2.819-4.46,7.425-2,11,2.074,3.014,5.3,2.564,8,1,.654-.38,1.231-2.023,2-2,1.129.035.863.808,1,2a5.3,5.3,0,0,0,3,4c.5.215,1.461-.036,2,0a3.761,3.761,0,0,0,1,0,5.44,5.44,0,0,0,2,0c.62-.158,1.44-.585,2,0,.058.06.937-.05,1,0,.162,1.512.792,3.249,2,4,3.031,1.884,5.975-.772,7-4C1987.656,1154.259,1981.382,1146.824,1975.085,1144.354Z" transform="translate(-1936.188 -1142.669)"/><path class="s" d="M1939.238,1351.454c5.571,1.136,13.174,1.252,23-1a46.527,46.527,0,0,0,18-9l-41,10C1939.314,1351.742,1939.165,1351.184,1939.238,1351.454Z" transform="translate(-1928.34 -1261.769)"/><path class="z" d="M1935.692,1264.633l5-1c9.565,10.166,29,0,29,0l6,1s1.848,43.526-2,67c-1.275,7.78-49.411.832-47-4C1928.91,1323.189,1935.692,1264.633,1935.692,1264.633Z" transform="translate(-1920.795 -1214.948)"/><path class="q" d="M2056.512,1294.7c.821,1.566,4.935,24.128-2,57l-14-4s3.585-25.835,2-36S2056.4,1294.488,2056.512,1294.7Z" transform="translate(-1988.615 -1234.015)"/><g transform="translate(42.538 19.039)"><path class="q" d="M2025.234,1194.866a3.967,3.967,0,0,1-1,2c-.729,1.06-1.783,2.1-3,2-1.948-.166-3.2-2.687-3-5s2.053-4.166,4-4S2025.43,1192.554,2025.234,1194.866Z" transform="translate(-2017.874 -1190.22)"/><path class="q" d="M2021.777,1209.29a1.57,1.57,0,0,0,2,0,19.864,19.864,0,0,0,3-3h-4Z" transform="translate(-2020.418 -1199.644)"/></g><path class="z" d="M1929.165,1267.1l-4,2c-3.3,1.016-5.114,4.053-6,8l-3,11c-.427,1.9.853,4.209,5,5l6,2Z" transform="translate(-1914.267 -1217.413)"/><path class="z" d="M2041.187,1303.683s14.569-1.134,20-6a3.791,3.791,0,0,0,1-4l-5-17a14.15,14.15,0,0,0-9-9l-4-1Z" transform="translate(-1989.289 -1216.998)"/><path class="r" d="M1973.017,1199.114l-2,6c-.391,1.055.729,1.284,2,1h1c.707-.159,1.145-.4,1-1l-1-6c-.049-.2.246.025,0,0h0C1973.742,1199.086,1973.1,1198.892,1973.017,1199.114Z" transform="translate(-1947.12 -1176.429)"/></g></g></g></g><g transform="translate(535.272 249.329)"><path class="e" d="M1934.446,1784.517l3,93c.059,1.8,2.074,3.064,4,3h0c1.573-.052,2.633-.565,3-2l25-95Z" transform="translate(-1848.391 -1528.28)"/><path class="e" d="M1816.561,1793.379v93a2.829,2.829,0,0,1-3,3h0a2.76,2.76,0,0,1-3-2l-26-94Z" transform="translate(-1758.506 -1534.142)"/><g transform="translate(0 96.46)"><path class="as" d="M1859.892,1772.7h-65a15.976,15.976,0,0,1-16-19l2-7h94l2,7C1879.151,1763.674,1870.423,1772.7,1859.892,1772.7Z" transform="translate(-1754.837 -1602.924)"/><path class="e" d="M2016.18,1508.885l3,27c1.518,10.649-4.331,21.244-13,22l-13,1v-48Z" transform="translate(-1883.125 -1460.108)"/><path class="e" d="M1740.252,1515.771l-4,27c-1.518,10.649,4.331,20.244,13,21l14,2v-48Z" transform="translate(-1729.198 -1463.995)"/><path class="v" d="M1861.98,1431.98c-.742-2.476-2.977-6.54-4-9a80.4,80.4,0,0,1-4-13c-2.944-12.194-11.4-21.034-25-22-16.389-1.164-43.489.056-57,1s-14.208.473-20,1c-14.967,1.361-20.308,9.1-24,21-1.562,5.036-2.611,9.168-5,14-1.167,2.359-3.22,5.487-4,8-1.4,4.506.855,7.577,6,8s12.625-.936,18,0c2.332.406,4.37-.718,5,3,2.006,11.827,3.743,16.731,2,32-1.935,16.956-9.72,34.353-7,54,.518,3.747,1.215,5.059,4,5,29.977-.634,60.577-5.113,90,1,3.432.713,4.832-.7,5-4,1.381-27.2-13.269-67.522-6-91,.644-2.081,1.671-2.244,4-2,4.277.447,10.747,1.626,15,2C1860.857,1441.5,1863.519,1437.117,1861.98,1431.98Z" transform="translate(-1718.925 -1387.203)"/><path class="at" d="M1752.98,1571.42c-.089-16.507,7.669-32.85,11-49,1.877-9.1,1.617-18.7-4-26a29.55,29.55,0,0,0-15-10c-7.134-2.2-14.555-2.774-22-3-1.164,2.31-3.306,4.764-4,7-1.4,4.506.855,7.577,6,8s12.625-.936,18,0c2.332.406,4.37-.718,5,3,2.006,11.827,3.743,16.731,2,32-1.935,16.956-9.72,34.353-7,54,.518,3.747,1.215,5.059,4,5,2.9-.062,6.1-.889,9-1C1754.8,1584.556,1753.017,1578.386,1752.98,1571.42Z" transform="translate(-1718.925 -1444.643)"/></g><g transform="translate(42.435 9.705)"><path class="e" d="M1880.529,1198.056c0,15.434-12.565,44-28,44s-28-28.566-28-44a28,28,0,0,1,56,0Z" transform="translate(-1824.909 -1170.523)"/><path class="e" d="M1889.886,1359h-23l2-22h19Z" transform="translate(-1850.266 -1270.465)"/><path class="e" d="M1855.949,1385.581l6,3c6.389,4.255,13.958,3.736,20-1l4-4-15-2Z" transform="translate(-1843.329 -1297.048)"/></g><path class="x" d="M1875.7,1184.522c-.423-1.213-1.461-1.793-2-3a3.2,3.2,0,0,1,0-2,15.8,15.8,0,0,0,0-6c-.244-2.093-.12-4.906-1-7,1.684-4.022.262-8.238-2-12a16.429,16.429,0,0,0-12-8,27.266,27.266,0,0,0-16,3,20.863,20.863,0,0,0-6,5c-.234.265-.771.731-1,1a25.792,25.792,0,0,0-6,2c-.474.124-1.526-.124-2,0-1.287.028-1.725.806-3,1-2.252.342-5.173.631-7,2-3.079,2.307-4.6,6.256-5,10-.046.427.23.636,0,1a24.436,24.436,0,0,0-4,15c.27,3.305,1.514,6.034,3,9,1.51,3.013,3.3,5.114,5,8,.093.158-.08.844,0,1,.036.068-.03-.071,0,0,.116.281.88.72,1,1,.034.079-.028-.082,0,0,.364,1.1-.012,2.7,0,4a8.5,8.5,0,0,0,1,4c1.06,2.244,3.5,4.236,5,6,.6.707,1.232.478,2,1,.752.511.963,2.106,1,3h0c.166,4.071,2.9,5.733,7,6a39.1,39.1,0,0,0,6,0c2.486-.231,3.767,1.385,6,2a5.79,5.79,0,0,0,6-2c.582-.628,1.219-1.649,2-2a7.725,7.725,0,0,0,2-1c.81-.687,2-.641,3-1,1.365-.489,2.009-1.756,3-3a10.226,10.226,0,0,0,2-5,5.911,5.911,0,0,1,2-4c1.233-.99,1.573-2.7,3-5,.616-.993,1.445-1.487,2-3,.564-1.538.163-3.412,0-5a2.116,2.116,0,0,1,0-1c.49-1.514.643-2.505,1-4,.1-.411.736-.669,1-1a23.2,23.2,0,0,0,2-3A8.8,8.8,0,0,0,1875.7,1184.522Z" transform="translate(-1772.645 -1146.285)"/><path class="s" d="M1838.7,1267.477c-.988-.006-2.367.759-3,0-.382-.459.094-1.41,0-2-.375-2.353-3.875-3.783-3-6,.331-.838.64-1.174,1-2a3.446,3.446,0,0,0-1-4c-1.186-.731-3.07-.962-4-2-2.93-3.269,1.487-8.383-1-12-2.3-3.351-8.318-2.3-10-6-1.133-2.495.745-5.363,0-8-.856-3.032-5.245-4.325-8-6-1.241,3.178-1.311,7.185-1,11,.27,3.305,1.513,6.033,3,9,1.51,3.012,3.3,5.115,5,8,.093.158-.08.845,0,1,.035.069-.029-.071,0,0,.116.281.88.72,1,1,.034.079-.027-.082,0,0,.364,1.1-.012,2.7,0,4a8.5,8.5,0,0,0,1,4c1.06,2.244,3.5,4.236,5,6,.6.707,1.232.477,2,1,.752.511.963,2.106,1,3h0c.166,4.071,2.9,5.733,7,6a39.144,39.144,0,0,0,6,0c.175-.016-.164,0,0,0a4.714,4.714,0,0,0,1-2C1841.215,1269.759,1840.494,1267.49,1838.7,1267.477Z" transform="translate(-1772.645 -1190.24)"/><path class="s" d="M1940.574,1231.724a7.131,7.131,0,0,1,0-2c-.326,0-.677-.028-1,0a8.642,8.642,0,0,0-4,2c-1.077.853-2.171,1.637-2,3,.24,1.917,1.93,4.069,2,6,.089,2.46-2.233,3.66-3,6-.853,2.6,1.157,5.519,0,8-1.192,2.556-4.6,3.553-6,6-1.689,2.953-.077,7.194-2,10-1.144,1.671-3.073,2.2-4,4a2.881,2.881,0,0,0,0,3h0a7.725,7.725,0,0,0,2-1c.81-.687,2-.642,3-1,1.365-.489,2.009-1.756,3-3a10.218,10.218,0,0,0,2-5,5.913,5.913,0,0,1,2-4c1.233-.99,1.573-2.7,3-5,.616-.993,1.445-1.488,2-3,.564-1.538.163-3.412,0-5a2.114,2.114,0,0,1,0-1c.49-1.513.642-2.505,1-4,.1-.411.736-.669,1-1a23.254,23.254,0,0,0,2-3,8.8,8.8,0,0,0,1-7C1942.151,1233.511,1941.113,1232.931,1940.574,1231.724Z" transform="translate(-1839.519 -1196.486)"/></g><g transform="translate(555.33 392.593)"><rect class="m" width="13" height="101" transform="translate(43.996 126.973)"/><ellipse class="m" cx="25.5" cy="6.5" rx="25.5" ry="6.5" transform="translate(24.996 220.973)"/><path class="m" d="M1872.019,1616.072c-7.24-5.374-19.574,2.324-26-4-3.049-3-3.525-7.754-3-12,1.444-11.676,6.156-22.881,10-34s7.474-23.328,6-35-8.827-21.316-20-25a36.27,36.27,0,0,0-24,0c-6.509,2.393-13.168,6.026-18,11-12.606,12.975-12.654,33.283-9,51s8.351,26.283,7,44a17.79,17.79,0,0,1-5,9c-2.351,2.394-9.645,3.03-13,3s-7.711,1.657-8,5c-.339,3.925,4.219,5.894,8,7,25.288,7.4,52.15,9.1,78,4,6.128-1.208,12.779-3.4,17-8S1877.034,1619.794,1872.019,1616.072Z" transform="translate(-1769.022 -1504.099)"/></g><rect class="ae" width="192" height="130" rx="10.15" transform="translate(88.327 215.566)"/><g transform="translate(94.037 221.408)"><rect class="af" width="179" height="118" rx="5.818" transform="translate(0.29 0.158)"/><text class="au" transform="translate(17.29 15.158)"><tspan x="0" y="0">&gt;</tspan></text><g transform="translate(36.938 19.049)"><rect class="m" width="32" height="2" rx="1" transform="translate(0.352 0.109)"/><rect class="m" width="25" height="2" rx="1" transform="translate(53.352 0.109)"/><rect class="m" width="28" height="2" rx="1" transform="translate(0.352 12.109)"/><rect class="m" width="20" height="2" rx="1" transform="translate(36.352 12.109)"/><rect class="av" width="20" height="3" rx="1.5" transform="translate(64.352 24.109)"/><rect class="m" width="28" height="2" rx="1" transform="translate(64.352 12.109)"/><rect class="m" width="20" height="3" rx="1.5" transform="translate(0.352 24.109)"/><rect class="aw" width="32" height="3" rx="1.5" transform="translate(26.352 24.109)"/><rect class="m" width="12" height="2" rx="1" transform="translate(83.352 0.109)"/><rect class="av" width="9" height="2" rx="1" transform="translate(97.352 12.109)"/><rect class="av" width="12" height="2" rx="1" transform="translate(37.352 0.109)"/></g></g><g transform="translate(112.699 249.192)"><path class="e" d="M767.132,1841.468v93c0,1.8-1.2,4-3,4h0c-1.474,0-2.613-1.578-3-3l-26-94Z" transform="translate(-706.504 -1563.093)"/><path class="ax" d="M790.655,1843.468l-1,1c-.781,4.243-.16,8.6,0,13,.386,10.586,1.036,21.4,4,31a93.874,93.874,0,0,0,4,11,11.05,11.05,0,0,0,2,3v-61h-8A17.747,17.747,0,0,0,790.655,1843.468Z" transform="translate(-739.028 -1563.093)"/><path class="e" d="M890.014,1832.605l3,94c.059,1.8,2.074,3.064,4,3h0c1.574-.052,2.634-1.565,3-3l24-95Z" transform="translate(-799.386 -1557.23)"/><g transform="translate(0 109.383)"><path class="as" d="M813.4,1822.545h-69c-10.952,0-19.092-9.577-17-20l2-7h99l2,6A17.418,17.418,0,0,1,813.4,1822.545Z" transform="translate(-701.777 -1644.553)"/><path class="e" d="M995.258,1545.84l4,29c1.6,11.247-4.844,21.2-14,22l-15,1v-50Z" transform="translate(-847.63 -1494.849)"/><path class="ax" d="M970.258,1600.768h3a13.522,13.522,0,0,0,5-9c.406-3.594-.016-7.529,1-11,.854-2.917,3.109-5.094,4-8,1.1-3.6-.529-7.538-2-11a34.617,34.617,0,0,0-7-11h-4Z" transform="translate(-847.63 -1497.777)"/><path class="e" d="M676.1,1545.84l-4,29c-1.6,11.247,4.844,21.2,14,22l14,1v-50Z" transform="translate(-668.473 -1494.849)"/><path class="ax" d="M705.006,1557.916c.872,1.177,2.249,2.742,3,4,3.043,5.1.272,11.73,3,17,.8,1.54,2.652,2.3,3,4a16.886,16.886,0,0,1,0,4,15.545,15.545,0,0,0,4,12h0v-50l-16-2A17.5,17.5,0,0,0,705.006,1557.916Z" transform="translate(-686.379 -1495.924)"/><path class="v" d="M814.142,1462.127a76.379,76.379,0,0,0-4-9c-2.372-4.559-2.324-8.332-4-13-4.354-12.128-11.627-21.087-27-21-24.481.139-54.534.008-79,0-15.364-.005-21.682,8.9-26,21a88.4,88.4,0,0,1-6,14,72.457,72.457,0,0,0-4,9c-1.648,4.682.614,8.357,6,9s12.307-.22,18,1c2.469.53,3.493.258,4,4,1.612,11.9,3.03,18.521,3,33-.034,16.079-5.694,38.44-6,56-.058,3.349,1.024,4.929,4,5,32.036.769,63.681,2.455,96,2,3.77-.053,4.878-1.341,5-5,1.007-30.161-9.349-64.572-7-91a5.992,5.992,0,0,1,5-5c4.5-.427,10.7.464,15,0C813.083,1471.486,815.93,1467.488,814.142,1462.127Z" transform="translate(-663.515 -1419.135)"/></g><g transform="translate(19.546)"><path class="e" d="M832.188,1349.8l-7-36-26,4-1,33c-.017.566-.457,1.839-1,2-5.325,1.579-9,3-9,3-.051,3.332,12.221,5.988,27,6s26.949-2.667,27-6a33.1,33.1,0,0,0-7-3A4.614,4.614,0,0,1,832.188,1349.8Z" transform="translate(-758.107 -1246.422)"/><path class="i" d="M892.336,1239.4l6,9c1.017,1.326,1.281,2.879,0,4l-4,4c-.44.385-.922-.45-1-1l-3-15C890.236,1239.7,891.891,1238.819,892.336,1239.4Z" transform="translate(-819.255 -1202.025)"/><path class="e" d="M760.343,1230.26l25-2c7.186,1.319,21.51,2.327,20-5l-1-5-8-39c-3.538-17.164-19.389-28.829-36-26h0c-16.61,2.828-27.538,18.836-24,36l1,7c2.129,10.329,9.775,18.614,18,26C757.325,1224.04,757.833,1227.314,760.343,1230.26Z" transform="translate(-726.262 -1149.886)"/><path class="x" d="M791.414,1157.316c-4.124-5.456-11.589-8.416-19-9-15.947-4.876-34.288-1.481-45,10a42.463,42.463,0,0,0-4,5,23.76,23.76,0,0,0-5,9c-.759,2.709-.669,5.217-1,8-.306,2.568-1.19,6.027-4,7a2.117,2.117,0,0,0,0,4,18.135,18.135,0,0,0,5,1c-.294.438-.662.587-1,1a1.771,1.771,0,0,0,1,3c.189.034-.186-.024,0,0a5.653,5.653,0,0,1,4,3c.512.893,1.385,2.159,2,3l6,9c.332.367.658.641,1,1,1.3,1.361,3.585,2.739,5,4,.8.709,1.181,1.313,2,2,1,.839-.088,1.246-1,2-1.816,1.5.959,4.356,3,3,.156-.1.856.108,1,0h0c.252-.192-.217-.794,0-1-.45,1.1-.67,2.293-1,3-.774,1.658,0,3.307,2,3a17.618,17.618,0,0,0,5-2h1c-.467,2.024,1.223,3.42,3,2,1.247-1,3-1.845,4-3,.024,1.59,1.645,2,3,1,7.8-5.778,11.781-16.121,6-24-.814-1.575-2.352-2.333-3-4-1.574-4.051-2.523-10.541,1-14a2.377,2.377,0,0,0,2,0,21.43,21.43,0,0,0,6-5c-.265.806-.658,1.2-1,2-.762,1.778,2.294,2.832,4,2a16.845,16.845,0,0,0,8-8c.044.8-.014,2.191,0,3,.038,2.172,2.67,2.641,4,1C790.084,1173.552,796.539,1164.1,791.414,1157.316Z" transform="translate(-712.333 -1145.942)"/><path class="s" d="M813.681,1258.288c-.814-1.575-2.352-2.333-3-4-1.574-4.051-2.523-10.541,1-14,.478.16.477.213,1,0a5.135,5.135,0,0,0-4-1s-5.32-.307-9,1a7.8,7.8,0,0,0-4,3,6.852,6.852,0,0,0-1,3,11.392,11.392,0,0,0,3,10,25.137,25.137,0,0,1,4,5c.215.409,1.026.539,1,1-.054.94-1.765,2.089-2,3-.423,1.645,1.61,3.026,3,4s3.349,2.339,3,4c-.338,1.605-2.172,2.584-3,4-.808,1.382-1.056,2.8,0,4,.105.12.886-.109,1,0h0c0,.068-.01-.065,0,0,.738.671,1.053,1.636,2,2,.432-.05.651-.741,1-1C815.478,1276.51,819.462,1266.167,813.681,1258.288Z" transform="translate(-761.599 -1201.914)"/><path class="g" d="M826.127,1248.971h-2c-2.931.492-4.567,4.3-3,7,1.7,2.931,3.4,6.416,6,8,1.6.975,4.248-1.132,4-3l-2-9C828.882,1250.122,827.893,1248.675,826.127,1248.971Z" transform="translate(-777.045 -1207.597)"/><path class="at" d="M874.992,1343.011l-6-1c-.865-.105-.547,1.323,0,2l7,9c.348.431,1.112.542,1,0Z" transform="translate(-805.911 -1263.636)"/></g></g><path class="ax" d="M905.014,1833.572h-15l3,94h0c.069,1.532,2.7,1.505,3,0,1.2-6.058.893-12.788,1-19,.175-10.187.97-19.864,2-30,.683-6.714,1.093-13.313,2-20C902.13,1850.354,903.9,1841.791,905.014,1833.572Z" transform="translate(-686.687 -1309.006)"/><g transform="translate(133.711 387.66)"><path class="m" d="M802.137,2100.895l4-4a2.529,2.529,0,0,1,2-1h26a2.262,2.262,0,0,1,2,1l3,5a2.464,2.464,0,0,1-2,4h-33C801.92,2105.895,800.752,2102.626,802.137,2100.895Z" transform="translate(-767.522 -1853.989)"/><path class="m" d="M0,0H13a0,0,0,0,1,0,0V82.5A6.5,6.5,0,0,1,6.5,89h0A6.5,6.5,0,0,1,0,82.5V0A0,0,0,0,1,0,0Z" transform="translate(46.616 158.906)"/><path class="m" d="M821.61,1639.685c-1.062-3.962-4.328-5.807-8-8a8.433,8.433,0,0,1-4-6,201.369,201.369,0,0,1-3-32c0-24.642,6-70,6-70,0-17.8-17-32-38-32h0c-19.822,0-36.416,13.248-38,30,0,0,1,41.506,1,68,0,12.68-3.205,23.773-6,32a12.209,12.209,0,0,1-6,7,23,23,0,0,0-5,3c-4.121,3.63-6.412,10.067-4,15,2.584,5.285,9.184,7.112,15,8,24.362,3.718,49.705,4.134,74,0,4.122-.7,8.585-1.587,12-4A10.445,10.445,0,0,0,821.61,1639.685Z" transform="translate(-715.994 -1491.779)"/></g><g transform="translate(265.417 244.432)"><g transform="translate(45.475 180.871)"><path class="an" d="M1184.953,1636.057c-7.369,0-16.415-3.62-26-6l6-17c17.538,4.356,30.085,3.24,35-2,4.847-5.168,3.079-15.6,2-19h0l19-6a57.259,57.259,0,0,1,2,13c.476,10.554-2.038,19.577-8,26-5.154,5.554-12,8.749-21,10A69.984,69.984,0,0,1,1184.953,1636.057Z" transform="translate(-1158.519 -1585.794)"/></g><g transform="translate(5.735 0)"><path class="am" d="M1294.039,1877.254l13,67c.252,1.32.656,2,2,2h0c1.36,0,2.766-.659,3-2l12-70a2.56,2.56,0,0,0-3-3l-25,3C1294.426,1874.445,1293.735,1875.659,1294.039,1877.254Z" transform="translate(-1199.864 -1576.12)"/><path class="am" d="M1117.055,1934.554l36,88c.734,1.808,2.053,2.131,4,2h0c2.554-.172,4.263-1.454,4-4l-9-89Z" transform="translate(-1093.88 -1612.42)"/><path class="ay" d="M1139.055,1992.228c.6.019,1.439-.762,2-1-1.138-5.259-1.862-9.741-3-15a100.165,100.165,0,0,0-4-13c-1.056-2.876-1.95-6.122-3-9-1.844-5.05-2.65-9.8-4-15a16.239,16.239,0,0,0-1-3l-9,1Z" transform="translate(-1093.88 -1615.094)"/><path class="as" d="M1179.978,1775.669c-3.908-3.651-10.625-7.063-53,1-36.073,6.865-53.676,10.253-55,19a11,11,0,0,0,0,3,14.451,14.451,0,0,0,1,7c2.634,6.724,5.913,13.473,9,20a64.713,64.713,0,0,0,5,9c1.754,2.544,4.2,2.612,7,3,6.967.967,13.979,1.813,21,1a54.993,54.993,0,0,0,6-1,7.9,7.9,0,0,0,4-2c.469-.484.894-.437,1-1a2.181,2.181,0,0,0,0-2c.119-.655.5-1.573,0-2h0c-.306-1.375-.687-2.626-1-4,8.31.148,20.33.3,38,1,12.515.5,16.887.881,21-3C1194.124,1815.091,1192.388,1787.262,1179.978,1775.669Z" transform="translate(-1066.803 -1516.535)"/><path class="as" d="M1387.857,1748.842a672.758,672.758,0,0,0-69,11l2,1c2.63,11.548,5.37,23.452,8,35,1.134,4.977,2.6,10.153,1,15,5.129-.166,9.861-2.967,14-6s7.969-5.824,12-9c7.908-6.231,17.346-11.445,24-19A35.014,35.014,0,0,0,1387.857,1748.842Z" transform="translate(-1214.682 -1502.707)"/><path class="j" d="M1107.457,1929.127l4,6c.953,1.773,2,3.248,4,3l32-4a3.41,3.41,0,0,0,3-4l-1-3c-.271-1.414-1.565-3.116-3-3l-38,3A1.4,1.4,0,0,0,1107.457,1929.127Z" transform="translate(-1088.283 -1607.993)"/><path class="s" d="M1180.2,1891.226l-16-9c-.825-.465-.631-1.293,0-2h0c.418-.469,1.418-1.237,2-1l28,12Z" transform="translate(-1122.021 -1581.092)"/><g transform="translate(0 26.692)"><g transform="translate(0 33.025)"><path class="am" d="M1059.438,1370.62l29-87,20,4-18,74a3.5,3.5,0,0,0,4,4l31-7,8,30-48,8C1069.977,1399.947,1055.695,1385.986,1059.438,1370.62Z" transform="translate(-1059.263 -1283.203)"/></g><g transform="translate(29.185)"><path class="am" d="M1162.145,1212.162a51.948,51.948,0,0,1,12,2,1.584,1.584,0,1,0,1-3c-.826-.341-1.146-.676-2-1,.049-.125-.028-.853,0-1,1.029-5.509-3.966-7.327-9-8a36.663,36.663,0,0,0-8,0c-2.914.152-7.248-1.119-10,0-2.521,1.025-5.21,3.538-6,6a90.875,90.875,0,0,0-2,9,70.178,70.178,0,0,1-3,9c-1.018,2.806-2.127,6.04-3,9-.916,3.108,3.166,4.6,6,6,3.6,1.777,7.4,3.223,11,5,1.039.513,1.892.346,2-1,.5-6.214,6.228-10.817,11-14,4.561-3.042,9.585-5.894,12-11,.857-1.811-1.276-4.06-3-3-3.489,2.144-7.355,5.13-11,7-1.828.938-3.275,1.313-4-1a9.491,9.491,0,0,1,0-5A7.024,7.024,0,0,1,1162.145,1212.162Z" transform="translate(-1132.154 -1200.72)"/><path class="az" d="M1197.7,1218.721c-6.985-3.237-9.749-2.836-12-2a10.453,10.453,0,0,1-5,0c-1.955-.356-2.688-1.306-4-1-.977.229-2.245,1.895-3,4" transform="translate(-1157.208 -1209.779)"/><path class="az" d="M1198.806,1211.1c-3.007-1.458-6.289-2.937-8-3-4.833-.177-6.45,2.2-10,1-1.39-.47-2.862-1.406-5-1-.855.162,1.442-.254,1,0" transform="translate(-1158.316 -1205.161)"/></g></g><g transform="translate(59.521 34.175)"><path class="ba" d="M1218.164,1239.1c2.37-.652,3.725.016,5,0,2.511-.031,4.511.069,7,0a17.756,17.756,0,0,0,5-1" transform="translate(-1214.01 -1230.644)"/><path class="ab" d="M1238.577,1224.369l-1-3c-.088-.979-1.021-2.088-2-2l-26,2c-.978.088-2.088,1.022-2,2l1,4Z" transform="translate(-1207.923 -1219.41)"/><path class="ba" d="M1217.876,1232.979a12.39,12.39,0,0,1,4-1c1.911-.051,3.26,0,5,0a22.848,22.848,0,0,0,6-1" transform="translate(-1213.722 -1226.52)"/></g><g transform="translate(43.759 108.969)"><path class="j" d="M1279.971,1406.379c-23.53-.775-45.614,6.6-61,14a134.562,134.562,0,0,0-37,12,8.151,8.151,0,0,1-2,1l-11,2c-.437.095.073-.4,0,0a2.182,2.182,0,0,0,0,1l15,40c.731,1.889,2.795,4.381,5,4,.078-.013.924.023,1,0l14-5c4.345,50.769.627,77.4,2,79,19.5,22.665,100-4,100-4S1323.057,1407.8,1279.971,1406.379Z" transform="translate(-1168.555 -1406.214)"/><path class="s" d="M1256.67,1575.5l9-2c1.224-.336,1.866,1.072,1,2l-10,9Z" transform="translate(-1221.254 -1506.338)"/><path class="at" d="M1444.8,1406.412c-.475-.016-.526.008-1,0,1.1,3.349,1.833,6.685,3,10,7.261,20.625,7.78,43.207,6,65s-5.339,43.137-5,65c.054,3.529-.156,7.676,1,11a150.8,150.8,0,0,0,22-7S1487.884,1407.832,1444.8,1406.412Z" transform="translate(-1333.383 -1406.247)"/></g><g transform="translate(82.345)"><ellipse class="am" cx="24.336" cy="6.031" rx="24.336" ry="6.031" transform="translate(15.775 119.955) rotate(-15.018)"/><path class="am" d="M1358.864,1372.543h-32v-39h23Z" transform="translate(-1302.033 -1253.408)"/><path class="ar" d="M1277.29,1259.695l-5,12c-.412,1.03.891,2.964,2,3h2a3.951,3.951,0,0,0,4-4c.187-5.148.27-13.319-2-12A3.158,3.158,0,0,0,1277.29,1259.695Z" transform="translate(-1269.459 -1208.561)"/><path class="am" d="M1330.237,1234.783l-32,13c-6.177,2.357-12-2.968-12-10v-5a2.306,2.306,0,0,1,1-2c1.7-.741,4-1.916,4-5,0-2.87-2.248-3.07-4-3-.784.031-1-1.215-1-2v-26c0-16.472,11.639-30,27-30h0c15.361,0,28,13.528,28,30v23C1341.237,1225.492,1337.01,1232.2,1330.237,1234.783Z" transform="translate(-1277.406 -1152.648)"/><path class="ar" d="M1341.756,1164.189c-1.385-1.734-3.287-3.885-4-6-.877-2.6-.6-5.324-1-8-.7-4.658-4.162-9.114-9-10-2.576-.472-5.494.427-8,1-3.2.731-5.892,1.083-9,0-2.875-1-5.21-2.807-8-4a40.081,40.081,0,0,0-10-3c-5.358-.739-11.623-.62-16,3a13.641,13.641,0,0,0-4,7c-.6,2.332-.723,4.65-3,6-2.219,1.315-4.975,2.08-5,5a4.286,4.286,0,0,0,4,4c-1.408,1.947-2.646,3.618-3,6-.385,2.594.348,5.754,3,7,2.813,1.322,4.426-.417,5-3a10.259,10.259,0,0,1,3-5c.035,3.7.77,7.949,5,9,.76.189,2.725.254,3,1,.237.645-.707,1.563-1,2-1.406,2.1-2.975,4.862-1,7,1.4,1.52,4.036,1.4,6,1,1.855-.378,5.281-3.02,7-2,1.4.831,1.165,3.693,2,5a8.516,8.516,0,0,0,2,2,5,5,0,0,1,1,1c0,.03,0-.029,0,0a2.733,2.733,0,0,1,0,1,3.513,3.513,0,0,1-1,1c-3.532,2.584-7.663,7.484-4,12,1.148,1.416,2.208,2.707,4,3,1.256.205,4.591-.483,5,1a8.05,8.05,0,0,1,0,3,5.547,5.547,0,0,0,0,3,3.849,3.849,0,0,0,2,2c.485.255,2.885.618,3,1,.036.118-.949.784-1,1a5.6,5.6,0,0,0,0,2c.243,1,1.124,1.448,2,2a7.2,7.2,0,0,0,7,0,14.521,14.521,0,0,0,5-4c.786-.94,1.01-2.247,2-3,1.279-.973,3.545-1.352,5-2,4.624-2.06,6.688-6.143,7-11,.182-2.828.044-5.179,0-8a12.554,12.554,0,0,1,2-7c2.328-3.73,6.082-7.587,7-12C1346.7,1170.661,1344.513,1167.638,1341.756,1164.189Z" transform="translate(-1264.926 -1134.054)"/><path class="an" d="M1330.864,1252.091h2c3.711,0,7.244,3.5,6,7-1.35,3.794-4.211,8.617-7,11-1.717,1.468-3.837.253-4-2l-1-12A3.874,3.874,0,0,1,1330.864,1252.091Z" transform="translate(-1302.034 -1204.957)"/><path class="s" d="M1326.864,1361.276l7-3c1.353-.516,2.8.792,2,2l-9,13Z" transform="translate(-1302.033 -1268.142)"/></g></g><g transform="translate(0 182.002)"><path class="an" d="M1098.85,1632.751c-.2-.208-.8-.8-1-1a2.568,2.568,0,0,0,0-2c.08-.045-.079.056,0,0,1.623-1.142,2.2-4.121,2-6-.148-1.372-1.219-1.923-2-3,1.141-.791,2.389-2.761,1-4-2.243-2-3.473-5.484-5-8a23.776,23.776,0,0,0-5-6c-4.557-3.779-9.469-5.811-11-12-.6-2.433-4.851-2.747-5,0-.189,3.494,1.041,6.167,3,9,.869,1.256,2.01,2.838,3,4-.1.066.09-.078,0,0a9.335,9.335,0,0,1-3,0c-.653-.015-1.348.05-2,0h0c-5.757-3.227-11.079-8.436-17-11a2.315,2.315,0,0,0-3,3c.948,2.186,3.074,3.755,5,5,2.208,1.427,4.792,2.574,7,4v1h0c-1.869.837-5.874-3.158-7-4-2.62-1.959-6.085-3.492-9-5-2.642-1.366-3.612,2.65-1,4,3.177,1.643,8.738,8.353,14,10,.03.282.873-.257,1,0-.03.1.025.908,0,1-.462-.157-1.542-.832-2-1-1.5-.55-2.545-1.338-4-2a63.977,63.977,0,0,1-9-5c-2.476-1.649-5.484,2.346-3,4a70.563,70.563,0,0,0,13,7c.831.329,2.045.644,3,1h0c-.119.309.114.688,0,1-.006.011-.994-.012-1,0-.056.1.043-.1,0,0-2.983-1.043-6.029-2.01-9-3-2.824-.942-3.83,4.056-1,5,7.979,2.66,15.879,5.805,24,8,3.777,1.021,7.353,1.535,11,3,1.238.5,2.871.31,4,1a9,9,0,0,0,2,1l7,2S1099.614,1633.546,1098.85,1632.751Zm-19-16h0C1079.85,1616.765,1079.85,1616.737,1079.85,1616.751Z" transform="translate(-1044.941 -1588.619)"/></g></g><path class="o" d="M1128.451,1626.916c-1.179,4.383,2.116,8.012,3,9,2.346,2.625,6.356,1.894,8,5,.375.707.958.547,1,1" transform="translate(-829.625 -1184.85)"/><path class="o" d="M1092.923,1643.677a16.969,16.969,0,0,1,1-7c.792-1.725,1.32-1.776,2-4a21.343,21.343,0,0,0,1-5" transform="translate(-808.097 -1185.611)"/><g transform="translate(327.368 512.162)"><rect class="m" width="12" height="107" transform="translate(76.958 17.404)"/><path class="m" d="M1219.627,1853.137l85-5c17.155-.937,29.856-11.261,31-24l2-21-125,24c-7.128,1.18-12.51,5.551-13,11h0C1198.9,1846.22,1208.741,1853.731,1219.627,1853.137Z" transform="translate(-1199.669 -1802.733)"/></g><path class="m" d="M1452.148,1508.828c-1.079-7.117-4.652-14.685-10-19-3.666-2.957-7.508-4.055-12-5a43.875,43.875,0,0,0-13-1c-8.586.953-16.269,6.027-22,13s-8.938,15.945-11,25c-1.248,5.479-2.777,11.42-2,17,1.07,7.695,5.592,14.145,9,21,6.989,14.059,12.343,29.143,14,45s-1.057,32.3-10,45a162.768,162.768,0,0,1,29-5c4.653-.378,11.234-1.361,16-4a11.7,11.7,0,0,0,6-8c1.461-8.322.972-16.5,1-25,.085-25.9,2.822-52.211,5-78C1452.754,1522.646,1453.226,1515.944,1452.148,1508.828Z" transform="translate(-981.821 -1099.262)"/><path class="e" d="M792.73,2064.021c3.591,1.63,5.8,4.246,5,6s-4.868.872-7,0c-2.179-.892-4.8-3.246-4-5S789.138,2062.392,792.73,2064.021Z" transform="translate(-624.403 -1446.455)"/><g transform="translate(158.051 614.886)"><path class="d" d="M787.06,2064.974a4.374,4.374,0,0,1-3,0c-.142-.046-.864.057-1,0-1.015-.429-2.238-1.675-2-3,.454-2.52-3.544-3.536-4-1a7.594,7.594,0,0,0,3,7,9.011,9.011,0,0,0,5,2c.872.365,2.113-.033,3,0a5.346,5.346,0,0,0,4-2v-3A7.732,7.732,0,0,0,787.06,2064.974Z" transform="translate(-776.785 -2059.294)"/><path class="d" d="M786.789,2066.807s-1.375-2.1,0-3h-2v3Z" transform="translate(-781.513 -2062.127)"/></g><path class="e" d="M902.607,2057c-3.592,1.63-5.8,4.246-5,6s4.868.872,7,0c2.179-.891,5.8-3.245,5-5S906.2,2055.371,902.607,2057Z" transform="translate(-691.28 -1442.434)"/><g transform="translate(206.493 612.202)"><path class="d" d="M902.607,2058.954a7.684,7.684,0,0,0,4,0c.142-.046-.136.057,0,0,1.015-.429,3.238-2.675,3-4-.454-2.519,2.544-3.536,3-1a7.6,7.6,0,0,1-3,7,9.005,9.005,0,0,1-5,2,10.5,10.5,0,0,1-3,1c-2.4.089-4-3-4-3v-2A7.747,7.747,0,0,1,902.607,2058.954Z" transform="translate(-897.773 -2052.589)"/><path class="d" d="M924.221,2059.787s1.375-1.1,0-2h1v2Z" transform="translate(-913.387 -2055.422)"/></g><path class="am" d="M1201.916,2141.217c4.067,1.846,6.9,4.013,6,6s-5.586,1.987-8,1c-2.467-1.009-5.9-4.013-5-6S1197.849,2139.372,1201.916,2141.217Z" transform="translate(-869.589 -1492.651)"/><g transform="translate(321.271 645.552)"><path class="d" d="M1196.5,2142.9a6.81,6.81,0,0,1-4,0c-.161-.052-.847.065-1,0-1.15-.486-3.27-2.5-3-4,.514-2.852-3.483-3.872-4-1-.548,3.044.682,5.117,3,7a12.369,12.369,0,0,0,6,3c.987.414,3-.038,4,0,2.713.1,4-3,4-3v-2A6.886,6.886,0,0,0,1196.5,2142.9Z" transform="translate(-1184.441 -2135.885)"/><path class="d" d="M1194.851,2144.107s-1.264-1.668,0-3h-1v3Z" transform="translate(-1189.796 -2139.093)"/></g></g><g transform="translate(74.32)"><path class="c" d="M413.306,375.062c.416-5.728,11.187-23.724,36-13,32.421,14.012,53.161,37.135,56,75,.555,7.4-1.711,5.363-4,7-2.208,1.569-1,1-1,1-3.481-1.2-6.393.826-8-5-9.348-33.879-20.387-46.774-55-45C411.645,396.377,412.99,379.415,413.306,375.062Z" transform="translate(-413.626 -358.342)"/></g><g transform="translate(678.954 10.864)"><path class="c" d="M505.673,375.2c-.416-5.728-11.187-24.724-36-14-32.421,14.012-53.161,37.135-56,75-.555,7.4,1.711,6.363,4,8,2.208,1.569,1,1,1,1,3.481-1.2,6.393.826,8-5,9.348-33.879,20.387-46.774,55-45C507.334,396.513,505.989,379.551,505.673,375.2Z" transform="translate(-413.627 -358.342)"/></g></g></g></svg>