<svg width="376" height="814" viewBox="0 0 376 814" fill="none" xmlns="http://www.w3.org/2000/svg">
<path d="M0 631.679C4.99617 626.983 10.0099 622.321 15.0219 617.677C16.9023 615.935 18.7845 614.193 20.6675 612.45C61.1602 574.971 102.024 537.148 133.703 490.007C166.855 440.674 189.424 379.092 183.894 317.307C181.968 295.785 176.74 274.933 171.51 254.073C166.617 234.559 161.723 215.039 159.529 194.956C152.588 131.445 174.981 64.718 217.353 22.647C225.787 14.2727 235.191 6.67256 245.273 0H376V814H0L0 631.679Z" fill="url(#paint0_linear)"/>
<defs>
<linearGradient id="paint0_linear" x1="214.479" y1="-64.7408" x2="382.44" y2="565.769" gradientUnits="userSpaceOnUse">
<stop stop-color="#116AF4"/>
<stop offset="1" stop-color="#025AE4"/>
</linearGradient>
</defs>
</svg>
