<svg xmlns="http://www.w3.org/2000/svg" xmlns:xlink="http://www.w3.org/1999/xlink" version="1.1" id="Layer_1" x="0px" y="0px" viewBox="0 0 120.9 30.1" style="enable-background:new 0 0 120.9 30.1;" xml:space="preserve">
  <style type="text/css">
    .st0{fill:#54639B;}
    .st1{fill:#EB396C;}
    .st2{fill:#5A4E94;}
    .st3{fill:#314581;}
  </style>
  <g>
    <g>
      <g>
        <path class="st0" d="M17.6,29.4l8.5-8.5c-0.9,0.9-2.4,0.9-3.4,0L21,19.3l-6.8,6.8c-0.9,0.9-0.9,2.4,0,3.4l0,0     C15.2,30.4,16.7,30.4,17.6,29.4z"/>
        <path class="st1" d="M17.6,9.2l8.5,8.5c-0.9-0.9-2.4-0.9-3.4,0L21,19.3l-6.8-6.8c-0.9-0.9-0.9-2.4,0-3.4l0,0     C15.2,8.2,16.7,8.2,17.6,9.2z"/>
        <path class="st2" d="M26.1,21L26.1,21c0.9-0.9,0.9-2.4,0-3.4l0,0c-0.9-0.9-2.4-0.9-3.4,0L21,19.3l1.7,1.7     C23.6,21.9,25.1,21.9,26.1,21z"/>
      </g>
      <path class="st0" d="M9.2,0.7L0.7,9.2c0.9-0.9,2.4-0.9,3.4,0l1.7,1.7l6.8-6.8c0.9-0.9,0.9-2.4,0-3.4l0,0    C11.6-0.2,10.1-0.2,9.2,0.7z"/>
      <path class="st1" d="M9.2,21l-8.5-8.5c0.9,0.9,2.4,0.9,3.4,0l1.7-1.7l6.8,6.8c0.9,0.9,0.9,2.4,0,3.4l0,0    C11.6,21.9,10.1,21.9,9.2,21z"/>
      <path class="st2" d="M0.7,9.2L0.7,9.2c-0.9,0.9-0.9,2.4,0,3.4l0,0c0.9,0.9,2.4,0.9,3.4,0l1.7-1.7L4.1,9.2C3.1,8.2,1.6,8.2,0.7,9.2    z"/>
    </g>
  </g>
</svg>