<?xml version="1.0" encoding="UTF-8" standalone="no"?>
<svg
   xmlns:dc="http://purl.org/dc/elements/1.1/"
   xmlns:cc="http://creativecommons.org/ns#"
   xmlns:rdf="http://www.w3.org/1999/02/22-rdf-syntax-ns#"
   xmlns:svg="http://www.w3.org/2000/svg"
   xmlns="http://www.w3.org/2000/svg"
   xmlns:sodipodi="http://sodipodi.sourceforge.net/DTD/sodipodi-0.dtd"
   xmlns:inkscape="http://www.inkscape.org/namespaces/inkscape"
   viewBox="0 0 92.059335 114.03656"
   width="92.059334"
   height="114.03657"
   version="1.1"
   id="svg14"
   sodipodi:docname="star2star.svg"
   inkscape:version="0.92.3 (2405546, 2018-03-11)">
  <metadata
     id="metadata20">
    <rdf:RDF>
      <cc:Work
         rdf:about="">
        <dc:format>image/svg+xml</dc:format>
        <dc:type
           rdf:resource="http://purl.org/dc/dcmitype/StillImage" />
      </cc:Work>
    </rdf:RDF>
  </metadata>
  <defs
     id="defs18" />
  <sodipodi:namedview
     pagecolor="#ffffff"
     bordercolor="#666666"
     borderopacity="1"
     objecttolerance="10"
     gridtolerance="10"
     guidetolerance="10"
     inkscape:pageopacity="0"
     inkscape:pageshadow="2"
     inkscape:window-width="1879"
     inkscape:window-height="1104"
     id="namedview16"
     showgrid="false"
     inkscape:zoom="2.8914783"
     inkscape:cx="31.773249"
     inkscape:cy="41.843272"
     inkscape:window-x="2107"
     inkscape:window-y="203"
     inkscape:window-maximized="0"
     inkscape:current-layer="svg14" />
  <title
     id="title2">Star2Star</title>
  <path
     d="M 88.624942,41.436814 C 88.32687,55.148123 69.051551,62.003778 40.039216,62.003778 c -14.80424,0 -28.813621,-2.881362 -38.5506384,-6.756298 -2.13618178,-0.894215 -1.88778848,-1.241966 0.198715,-0.645822 8.097621,2.384575 17.3378514,3.576863 27.5716544,3.974292 30.303981,1.192288 51.616124,-9.389266 51.616124,-20.914714 0,-3.278791 -1.788431,-6.358868 -5.017544,-9.041515 7.948585,3.378148 12.767415,7.898906 12.767415,12.817093 z"
     id="path4"
     inkscape:connector-curvature="0"
     style="stroke-width:0.49678656" />
  <path
     d="m 92.052764,71.442722 c -1.29164,11.028662 -13.214518,18.828211 -41.034565,18.828211 -13.015808,0 -27.770369,-3.278791 -37.606743,-7.203405 -2.632969,-1.043252 -2.384576,-1.49036 0,-0.74518 7.00469,2.185861 15.15199,3.378149 24.889007,4.173007 25.88258,1.987146 46.996009,-9.389266 46.996009,-20.964393 0,-3.229112 -1.639396,-6.309189 -4.570437,-9.041515 7.203405,3.427827 11.525449,8.892479 11.326729,14.953275 z"
     id="path6"
     inkscape:connector-curvature="0"
     style="stroke-width:0.49678656" />
  <path
     d="M 48.782659,31.948191 C 45.305153,27.079682 39.691465,20.671136 37.058496,19.081419 34.276492,17.442023 25.632405,16.647165 19.17418,16.44845 18.329643,16.39877 18.180607,15.70327 18.925787,15.603913 24.589154,14.809054 31.544165,13.716124 31.295772,10.983798 31.097058,8.6489014 29.060233,4.3268584 26.973729,0.65063739 c -0.298072,-0.4471077 0.447108,-0.8942156 0.74518,-0.4967864 3.129755,3.77557841 6.955012,8.34601441 10.035089,10.68091101 3.179434,2.384575 10.531875,3.179434 16.592671,3.527184 0.496786,0.04968 0.794858,0.645823 0.298072,0.695502 -5.265938,0.397429 -11.028662,1.440681 -11.525449,2.980719 -0.447107,1.589717 3.278792,8.544729 6.160154,13.512594 0.248393,0.447108 -0.198715,0.74518 -0.496787,0.39743 z"
     id="path8"
     inkscape:connector-curvature="0"
     style="stroke-width:0.49678656" />
  <path
     d="M 46.795513,113.81861 C 61.798467,111.18565 68.753479,85.700497 61.798467,57.681735 57.426745,40.194848 47.341978,25.589323 37.853355,17.740095 c 7.551156,8.047942 14.009381,20.020498 17.486887,33.880844 6.905333,27.571654 -0.596144,52.212261 -16.64235,55.043951 -4.471079,0.79486 -9.140873,-0.19872 -13.760988,-2.63297 6.65694,6.85565 15.052633,11.02866 21.858609,9.78669 z"
     id="path10"
     inkscape:connector-curvature="0"
     style="stroke-width:0.49678656" />
  <path
     d="m 26.427264,111.83147 c -2.732326,-3.42783 -6.060796,-7.10405 -7.799549,-8.1473 -2.185861,-1.29165 -8.8924804,-1.88779 -14.1584174,-2.13618 -0.844537,-0.0497 -0.993573,-0.64583 -0.149036,-0.79486 4.520758,-0.64582 9.7866954,-1.540038 9.5879814,-3.725898 -0.198715,-1.83811 -1.689075,-5.16658 -3.32847,-8.097623 -0.248394,-0.496786 0.298071,-0.844537 0.645822,-0.447108 2.483933,3.030401 5.514331,6.557581 7.998264,8.395691 2.434254,1.83811 7.849227,2.53361 12.618378,2.83169 0.74518,0.0994 0.844538,0.645818 0.149036,0.745178 -4.023971,0.39742 -8.047942,1.19228 -8.395693,2.38457 -0.298071,1.04325 1.689075,5.06722 3.7259,8.69377 0.447108,0.84453 -0.248394,1.09293 -0.894216,0.29807 z"
     id="path12"
     inkscape:connector-curvature="0"
     style="stroke-width:0.49678656" />
</svg>
