<svg xmlns="http://www.w3.org/2000/svg" width="71.428" height="68" viewBox="0 0 71.428 68"><defs><style>.a{fill:#764abc;}</style></defs><g transform="translate(-315.275 -6712)"><path class="a" d="M292.65,509.37c2.643-.273,4.091-2.265,4-5a5.1,5.1,0,0,0-5-5h0c-2.826.091-5.091,3.174-5,6,.091,1.367.18,2.18,1,3-3.1,6.107-7.89,10.263-15,14-4.831,2.552-8.987,3.638-14,3-4.1-.547-7.995-1.992-10-5-2.917-4.466-2.461-9.169,0-14,1.732-3.464,4.268-6.724,6-8a36.577,36.577,0,0,1-1-4c-13.217,9.571-12.011,21.893-8,28,3.008,4.558,9.255,8,16,8a19.47,19.47,0,0,0,5-1A36.387,36.387,0,0,0,292.65,509.37Z" transform="translate(72.35 6249.63)"/><path class="a" d="M311.158,497.326c-6.928-8.113-17.332-12-29-12h-2c-.82-1.641-2.086-3-4-3h0a4.919,4.919,0,0,0-5,5,5.1,5.1,0,0,0,5,5h0c2.005-.091,4.271-1.268,5-3h1a36.708,36.708,0,0,1,20,6c4.558,3.008,7.177,7.26,9,12,1.55,3.828,1.641,6.81,0,10-2.552,4.831-6.349,8-12,8a23.515,23.515,0,0,1-9-2c-1,.912-2.724,2.089-4,3,3.92,1.823,7.172,3,11,3,8.751,0,15.539-5.169,18-10C317.8,514.039,317.995,505.074,311.158,497.326Z" transform="translate(69.842 6250.674)"/><path class="a" d="M263.039,508.3a5.1,5.1,0,0,0,5,5h1a4.919,4.919,0,0,0,5-5c-.091-2.735-3.265-5-6-5h0c-.182,0,.182-.091,0,0a32.869,32.869,0,0,1-5-20c.365-5.469,1.81-11.08,5-15,2.643-3.373,8.536-4.909,12-5,9.662-.182,13.727,12.169,14,17,1.185.273,2.633.544,4,1-1.094-14.767-10.249-22-19-22-8.2,0-15.992,6.249-19,15-4.193,11.668-1.1,22.158,4,31A5.368,5.368,0,0,0,263.039,508.3Z" transform="translate(70.961 6252.7)"/></g></svg>