<svg xmlns="http://www.w3.org/2000/svg" xmlns:xlink="http://www.w3.org/1999/xlink" width="111.089" height="68.167" viewBox="0 0 111.089 68.167"><defs><style>.a{fill:none;}.b,.d{fill:#5e8e4f;}.c{fill:#272727;}.c,.d{fill-rule:evenodd;}.e{clip-path:url(#a);}.f{fill:url(#b);}.g{clip-path:url(#c);}.h{fill:url(#d);}.i{clip-path:url(#f);}.j{fill:url(#g);}.k{clip-path:url(#h);}.l{fill:url(#i);}.m{clip-path:url(#k);}.n{fill:url(#l);}.o{clip-path:url(#n);}.p{fill:url(#o);}.q{fill:url(#r);}</style><clipPath id="a"><path class="a" d="M643.224,1773.911l-10,6c-.4.229-1,.543-1,1v12c0,.456.6.771,1,1l10,6a3.008,3.008,0,0,0,2,0l10-6c.395-.229,1-.544,1-1v-12c0-.456-.6-.771-1-1l-10-6c-.2-.114-.78,0-1,0s-.8-.114-1,0" transform="translate(-632.351 -1773.45)"/></clipPath><linearGradient id="b" x1="-5.188" y1="-15.967" x2="-5.181" y2="-15.967" gradientUnits="objectBoundingBox"><stop offset="0" stop-color="#3d752e"/><stop offset="0.315" stop-color="#3d782c"/><stop offset="0.608" stop-color="#408327"/><stop offset="0.892" stop-color="#44961e"/><stop offset="1" stop-color="#47a01a"/></linearGradient><clipPath id="c"><path class="a" d="M632.828,1794c.1.132.852-.085,1,0l9,5,1,1c.226.13.747,1.018,1,1,.085-.008-.082-.976,0-1l11-20c-.085-.092.112.064,0,0l-7-4-3-2c-.1-.06-.885.028-1,0Z" transform="translate(-633.218 -1773.579)"/></clipPath><linearGradient id="d" x1="-5.443" y1="-15.193" x2="-5.436" y2="-15.193" gradientUnits="objectBoundingBox"><stop offset="0" stop-color="#3d752e"/><stop offset="0.138" stop-color="#3d752e"/><stop offset="0.433" stop-color="#529331"/><stop offset="0.725" stop-color="#63aa34"/><stop offset="0.908" stop-color="#6ab335"/><stop offset="1" stop-color="#6ab335"/></linearGradient><clipPath id="f"><path class="a" d="M667.859,1766.147v1h0Z" transform="translate(-667.702 -1766.614)"/></clipPath><linearGradient id="g" x1="-1034.85" y1="-6526.863" x2="-1033.558" y2="-6526.863" gradientUnits="objectBoundingBox"><stop offset="0" stop-color="#6ab335"/><stop offset="0.092" stop-color="#6ab335"/><stop offset="0.275" stop-color="#63aa34"/><stop offset="0.567" stop-color="#529331"/><stop offset="0.862" stop-color="#3d752e"/><stop offset="1" stop-color="#3d752e"/></linearGradient><clipPath id="h"><path class="a" d="M645.762,1773.916a4.461,4.461,0,0,0-1,0l-10,6,11,21c.158-.023.858-.917,1-1l10-6c.327-.189.933-.637,1-1l-12-19c-.085-.017.087,0,0,0-.036,0,.036,0,0,0" transform="translate(-634.558 -1773.457)"/></clipPath><linearGradient id="i" x1="-8.299" y1="-20.183" x2="-8.288" y2="-20.183" xlink:href="#g"/><clipPath id="k"><path class="a" d="M711.415,1840.776Z" transform="translate(-711.548 -1840.699)"/></clipPath><linearGradient id="l" x1="-3060.581" y1="-3520.633" x2="-3056.996" y2="-3520.633" xlink:href="#g"/><clipPath id="n"><path class="a" d="M682.9,1839.634l-10,6c-.146.085-.838.978-1,1h0l12-7h0v-1c-.087.339-.692.821-1,1" transform="translate(-672.063 -1839.061)"/></clipPath><linearGradient id="o" x1="-16.906" y1="-75.583" x2="-16.886" y2="-75.583" xlink:href="#g"/><linearGradient id="r" x1="-16.696" y1="-39.284" x2="-16.675" y2="-39.284" xlink:href="#b"/></defs><g transform="translate(-979.91 -6468.915)"><path class="b" d="M689.54,1883.616c-.366,0-.679.186-1,0l-4-2c-.5-.28-.165-.943,0-1,.667-.232,1.288.4,2,0,.074-.042-.077-.045,0,0l3,1c.093.052-.086.052,0,0l10-6c.094-.053,0,.11,0,0v-11c0-.114.1-.943,0-1l-10-6c-.092-.054.094-.054,0,0l-10,6c-.1.055,0,.89,0,1v11c0,.11-.1-.052,0,0l2,2c1.49.745,3-.118,3-1v-11c0-.161-.161-1,0-1h1a2.988,2.988,0,0,1,1,1v11a2.7,2.7,0,0,1-3,3,8.571,8.571,0,0,1-3-1l-2-1a2.364,2.364,0,0,1-1-2v-11a2.362,2.362,0,0,1,1-2l10-6a1.989,1.989,0,0,1,2,0l10,6a2.365,2.365,0,0,1,1,2v11a2.369,2.369,0,0,1-1,2l-10,6c-.32.186-.628,0-1,0" transform="translate(345.46 4653.384)"/><path class="b" d="M715.347,1894.654c-4.388,0-5-2.311-5-4,0-.16-.161,0,0,0h1c.145,0,.977-.141,1,0,.2,1.32.347,2,3,2,2.112,0,3,.121,3-1,0-.646-.717-1.678-4-2-2.744-.272-4-.805-4-3,0-2.023,2.141-3,5-3,3.212,0,4.8.609,5,3a5.344,5.344,0,0,1,0,1,5.782,5.782,0,0,1-1,0h-1c-.135,0,.027.131,0,0-.312-1.389-.94-2-3-2-2.307,0-3,.4-3,1,0,.73-.115.588,3,1,3.081.407,5,1.834,5,4,0,2.185-1.823,3-5,3" transform="translate(322.653 4634.346)"/><path class="b" d="M765.9,1875.85c0,1.062.063,2-1,2a2,2,0,0,1,0-4c1.043,0,1,.905,1,2m-3,0c0,.9.111,2,1,2a2,2,0,0,0,0-4c-.879,0-1,1.09-1,2m1-1h1c.256,0,0-.573,0,0,0,.4.154.949,0,1,.3.021-.041-.276,0,0a8.359,8.359,0,0,0,0,1h0c-.011-.1,0-.97,0-1-.03-.124.153,0,0,0h-1v1h0Zm0,1h1c.276,0,0-.887,0-1,0-.3.113,0,0,0h-1Z" transform="translate(286.098 4641.15)"/><path class="c" d="M560.262,1780.42c0-.462-.6-.771-1-1l-10-7c-.18-.106-.8.009-1,0h0c-.2.009-.818-.106-1,0l-10,7c-.4.229-1,.538-1,1v16c0,.229-.2.887,0,1a1.452,1.452,0,0,0,1,0l6-4c.4-.237,1-.542,1-1v-8c0-.459.6-.772,1-1l2-1c.2-.116.776-1,1-1s.805.884,1,1l2,1c.4.228,1,.541,1,1v8c0,.458.6.765,1,1l6,4c.2.118-.2.118,0,0s1-.771,1-1Z" transform="translate(443.738 4711.58)"/><path class="c" d="M744.9,1722.189a1.522,1.522,0,0,0-1,0c-.2.116,0,.772,0,1v16c0,.16.139-.081,0,0a2.105,2.105,0,0,1-1,0l-2-1a3,3,0,0,0-2,0l-10,6c-.4.23-1,.541-1,1v12c0,.459.6.77,1,1l10,7a3,3,0,0,0,2,0l10-7c.4-.23,1-.541,1-1v-30c0-.466-.594-.773-1-1Zm-1,31c0,.114.1.943,0,1l-4,2c-.1.057.1.057,0,0l-4-2c-.1-.057,0-.886,0-1v-4c0-.115-.1.058,0,0l4-2c.1-.058-.1-.058,0,0l4,2c.1.058,0-.115,0,0Z" transform="translate(310.103 4746.811)"/><path class="c" d="M846.884,1784.763c.4-.229,1-.543,1-1v-3c0-.458-.6-.77-1-1l-10-6a.812.812,0,0,0-1,0l-11,6c-.4.23-1,.541-1,1v12c0,.462.6.772,1,1l10,6a3.112,3.112,0,0,0,2,0l6-3c.2-.113,0-.769,0-1s.2.115,0,0l-11-6c-.2-.115,0-.77,0-1v-4c0-.229-.2.115,0,0l4-2c.2-.114-.2-.114,0,0l4,2c.2.115,0-.229,0,0v3c0,.23-.2.886,0,1a1.487,1.487,0,0,0,1,0Z" transform="translate(243.116 4711.237)"/><path class="d" d="M857.948,1808.814c.076-.044-.077-.044,0,0l2,2c.076.044,0-.089,0,0v2c0,.089.076-.044,0,0l-2,2c-.077.044.076.044,0,0l-2-2c-.076-.044,0,.089,0,0v-2c0-.089-.076.044,0,0Z" transform="translate(221.051 4686.186)"/><g class="e" transform="translate(1009.127 6484.538)"><rect class="f" width="34.71" height="33.183" transform="matrix(0.44, -0.898, 0.898, 0.44, -10.686, 21.799)"/></g><g class="g" transform="translate(1009.389 6484.577)"><rect class="h" width="34.595" height="35.405" transform="translate(-12.883 9.519) rotate(-36.459)"/></g><g class="e" transform="translate(1009.127 6484.538)"><g transform="translate(10.716 -2.072)"><g class="i"><rect class="j" height="1" transform="translate(0.157 -0.466)"/></g></g></g><g class="k" transform="translate(1009.796 6484.541)"><rect class="l" width="23" height="27" transform="translate(0.204 0.46)"/></g><g class="e" transform="translate(1009.127 6484.538)"><g transform="translate(24.006 20.385)"><g class="m"><rect class="n" transform="translate(-0.133 0.077)"/></g></g></g><g class="e" transform="translate(1009.127 6484.538)"><g transform="translate(12.038 19.888)"><g class="o"><rect class="p" width="12" height="8" transform="translate(-0.165 -0.426)"/></g></g></g><g class="e" transform="translate(1009.127 6484.538)"><g transform="translate(12.038 19.888)"><g class="o"><rect class="q" width="11.97" height="14.032" transform="matrix(0.44, -0.898, 0.898, 0.44, -2.95, 6.017)"/></g></g></g></g></svg>