<svg xmlns="http://www.w3.org/2000/svg" width="69.999" height="68" viewBox="0 0 69.999 68"><defs><style>.a{fill:#e74f0f;}.b{fill:#ffbf00;}.c{fill:#0078c1;}.d{fill:#2b8928;}.e{fill:#af0011;}.f{fill:#db0016;}.g{fill:#56a120;}.h{fill:#236424;}.i{fill:#004d76;}.j{fill:#560c0d;}.k{fill:#fff;}</style></defs><g transform="translate(-545.001 -6457)"><path class="a" d="M294.2,1853.211a16,16,0,1,1-16-16,16.163,16.163,0,0,1,16,16" transform="translate(289.802 4655.789)"/><path class="b" d="M400.533,1777.882a16.164,16.164,0,0,1-16,16c-8.712,0-15-7.29-15-16s6.288-16,15-16a16.164,16.164,0,0,1,16,16" transform="translate(214.468 4709.118)"/><path class="c" d="M269.427,1777.041c0,8.71-7.288,15-16,15s-16-6.29-16-15a16,16,0,1,1,32,0" transform="translate(307.573 4709.959)"/><path class="d" d="M376.6,1853.211a16.162,16.162,0,0,1-16,16c-8.709,0-15-7.289-15-16s6.291-16,15-16a16.162,16.162,0,0,1,16,16" transform="translate(231.399 4655.789)"/><path class="e" d="M334.977,1729.185c0,8.711-7.289,15-16,15s-16-6.289-16-15a16,16,0,0,1,32,0" transform="translate(261.023 4743.815)"/><path class="f" d="M369.534,1778.89c0,.332-.021.673,0,1a15.181,15.181,0,0,0,12-15c0-.332.021-.673,0-1a15.183,15.183,0,0,0-12,15" transform="translate(214.466 4708.109)"/><path class="g" d="M376.562,1839.209c2.718,4.753,7.133,8,13,8a17.589,17.589,0,0,0,7-2,16.3,16.3,0,0,0-14-8c-2.391,0-3.968,1.048-6,2" transform="translate(209.439 4655.791)"/><path class="h" d="M345.6,1866.865c0,3.854.7,7.261,3,10a14.5,14.5,0,0,0,0-20c-2.3,2.739-3,6.146-3,10" transform="translate(231.396 4642.135)"/><path class="i" d="M270.433,1845.213a14.389,14.389,0,0,0,6,1c5.809,0,10.262-2.325,13-7-1.916-.828-3.781-2-6-2-5.809,0-10.263,3.326-13,8" transform="translate(284.568 4655.787)"/><path class="j" d="M302.979,1762.056c-.037.44,0,1.55,0,2a15.2,15.2,0,0,0,12,15c.036-.439,1-.551,1-1,0-7.481-6.012-14.38-13-16" transform="translate(261.021 4708.943)"/><path class="k" d="M293.2,1811.63h-3a4.045,4.045,0,0,1-4-4v-22a4.044,4.044,0,0,1,4-4h31a4.044,4.044,0,0,1,4,4v22a4.045,4.045,0,0,1-4,4h-10l-21,11Z" transform="translate(272.795 4695.369)"/></g></svg>