<svg xmlns="http://www.w3.org/2000/svg" width="76" height="67.933" viewBox="0 0 76 67.933"><defs><style>.a{fill:#40b6d7;}</style></defs><g transform="translate(-313 -6460.059)"><path class="a" d="M1.466,1742.316h0c-.813-.279-2.174-.762-3-1,.137-.557.884-.438,1-1,1.862-9.04.159-16.6-4-19-3.987-2.3-10.414.269-17,6-.649.566-1.38.4-2,1-.415-.4-.571-.618-1-1-6.9-6.128-13.846-8.405-18-6-3.983,2.306-4.677,9.432-3,18,.167.848-.21,1.161,0,2-.979.278-2.1.685-3,1-8.091,2.821-13,7.413-13,12,0,4.737,5.572,9.119,14,12,.683.233,1.306.8,2,1-.226.9-.825,2.085-1,3-1.6,8.418.027,14.709,4,17,4.1,2.366,11.294-.138,18-6,.53-.464.467-.485,1-1,.671.648,1.294,1.391,2,2,6.5,5.59,13.031,7.3,17,5,4.1-2.373,5.73-9.263,4-18-.132-.667.173-1.306,0-2,.484-.143.537-.847,1-1,8.762-2.9,14-7.2,14-12C14.466,1749.714,9.72,1745.157,1.466,1742.316Zm-21-13c5.643-4.911,11.6-6.386,14-5h0c2.559,1.476,3.608,7.195,2,15-.105.509-.876.5-1,1-3.171-.732-6.4-.662-10-1a74.152,74.152,0,0,0-6-8C-19.962,1730.765-20.133,1729.839-19.534,1729.316Zm-19,29c.691,1.335,1.247,2.7,2,4,.769,1.328,1.169,2.71,2,4a69.906,69.906,0,0,1-7-1C-40.859,1763.137-39.505,1760.619-38.534,1758.316Zm0-8c-.951-2.255-2.336-3.859-3-6,2.18-.488,4.577-1.7,7-2-.811,1.264-1.249,2.7-2,4S-37.846,1748.983-38.534,1750.316Zm1,4c1.006-2.094,2.839-3.988,4-6h0c1.16-2.013,1.69-4.082,3-6,2.273-.172,4.644,0,7,0s4.728-.172,7,0c1.3,1.916,2.842,4,4,6s1.968,3.92,3,6c-1.021,2.1-1.832,3.977-3,6h0c-1.158,2.011-2.714,4.068-4,6-2.268.163-4.612,0-7,0s-4.772.145-7,0c-1.319-1.927-1.83-3.979-3-6S-36.525,1756.41-37.534,1754.316Zm28,8c.769-1.333,1.291-2.633,2-4h0a51.018,51.018,0,0,1,2,6c-2.216.505-4.479,1.7-7,2C-11.726,1765.036-10.29,1763.628-9.534,1762.316Zm2-12c-.706-1.34-1.241-2.689-2-4h0c-.747-1.291-2.2-2.743-3-4,2.439.308,4.806,1.5,7,2A54.587,54.587,0,0,1-7.534,1750.316Zm-16-17c1.506,1.631,3.516,4.024,5,6-3.009-.142-5.991-.141-9,0C-26.049,1737.359-25.064,1734.966-23.534,1733.316Zm-17-9c2.557-1.481,8.041.709,14,6,.381.339.617.634,1,1a79.988,79.988,0,0,0-7,8c-3.594.333-6.837.282-10,1-.195-.781.155-1.21,0-2h0C-43.971,1730.975-42.934,1725.706-40.534,1724.316Zm-4,40c-.633-.181-1.376-.787-2-1a28.281,28.281,0,0,1-9-5c-1.9-1.624-3-2.693-3-4,0-2.783,4.08-6.587,11-9,.869-.3,2.115-.749,3-1a85.718,85.718,0,0,0,4,10A84.75,84.75,0,0,0-44.534,1764.316Zm18,15a27.468,27.468,0,0,1-9,5h0c-2.353.832-3.867.653-5,0-2.411-1.39-3.367-6.8-2-14,.162-.85-.209-1.16,0-2,3.131.692,7.3.7,11,1a75.425,75.425,0,0,0,6,8C-26.008,1777.775-26.038,1778.882-26.534,1779.316Zm3-4c-1.548-1.67-2.493-4.013-4-6,1.463.058,2.484,1,4,1,1.558,0,3.484-.932,5-1C-20.022,1771.339-22.038,1773.669-23.534,1775.316Zm20,5c-.455,2.455-.868,3.345-2,4-2.409,1.395-7.445-.22-13-5-.637-.548-1.357-1.381-2-2a73.51,73.51,0,0,0,6-8c3.7-.328,6.835-.269,10-1,.156.629.881.4,1,1A31.778,31.778,0,0,1-3.534,1780.316Zm3-17h0c-.418.139-.563.871-1,1a81.8,81.8,0,0,0-4-10,85.47,85.47,0,0,0,4-10c.781.227,1.269.748,2,1,7.073,2.434,11,6.227,11,9C11.466,1757.27,7.031,1760.809-.534,1763.316Z" transform="translate(374.534 4739.684)"/><path class="a" d="M45.456,1805.171a9,9,0,1,1-9,9,9.118,9.118,0,0,1,9-9" transform="translate(305.544 4679.829)"/></g></svg>