<svg xmlns="http://www.w3.org/2000/svg" width="67.999" height="68.062" viewBox="0 0 67.999 68.062"><defs><style>.a{fill:#ea6618;}.b{fill:#d65813;}.c{fill:#e05e11;}.d{fill:#de5c16;}.e{fill:#fff;}</style></defs><g transform="translate(-773 -6458.938)"><path class="a" d="M160.093,63.067v-57a5.469,5.469,0,0,0-4-5l-2,1-27,29-1,3-1,2,9,32,1,1h20c2.876,0,5-3.124,5-6" transform="translate(680.906 6457.933)"/><path class="b" d="M0,5.474v57c0,1.781.637,4.061,2,5l2-1,29-31,1-2v-2l-8-30-1-1H5a4.86,4.86,0,0,0-5,5" transform="translate(773 6458.526)"/><path class="c" d="M102.674,33.474l30-33c-.469-.139-.486,0-1,0h-38Z" transform="translate(704.326 6458.526)"/><path class="d" d="M11.241,160.549h38l-9-35-32,34a5.412,5.412,0,0,0,3,1" transform="translate(766.759 6366.451)"/><path class="e" d="M60.146,69.518h4a109.633,109.633,0,0,0,5,15,104.713,104.713,0,0,0,5-15h4a121.824,121.824,0,0,1-7,20h-4A141.277,141.277,0,0,1,60.146,69.518Zm-12-10h8v36h-8v-2h5v-31h-5Zm42,3h-5v31h5v2h-8v-36h8Z" transform="translate(737.854 6414.482)"/></g></svg>