<svg xmlns="http://www.w3.org/2000/svg" width="60" height="68" viewBox="0 0 60 68"><defs><style>.a{fill:#d5290c;}.b{fill:#e34310;}.c{fill:#ededee;}.d{fill:#fff;}</style></defs><g transform="translate(-1006 -6712)"><path class="a" d="M1183.169,1819.274l-5-61h60l-6,61-24,7-25-7Z" transform="translate(-172.169 4953.726)"/><path class="b" d="M1257.655,1829.533l20-6,4-52h-24v58Z" transform="translate(-221.655 4945.467)"/><path class="c" d="M1226.587,1806.924h-10l-1-8h11v-7h-19v2l2,20h17v-7Z" transform="translate(-190.587 4933.076)"/><path class="c" d="M1230.482,1869.588h0l-8-2-1-6h-7l1,12,15,4h0v-8Z" transform="translate(-194.482 4889.412)"/><path class="d" d="M1257.612,1832v7h9l-1,10-8,2v8l15-4v-2l2-19v-2h-17Z" transform="translate(-221.612 4907.997)"/><path class="d" d="M1257.612,1791.924v7h18v-2l1-3v-2Z" transform="translate(-221.612 4933.076)"/></g></svg>