<svg xmlns="http://www.w3.org/2000/svg" xmlns:xlink="http://www.w3.org/1999/xlink" width="60" height="67.5" viewBox="0 0 60 67.5"><defs><style>.a{fill:#004897;}.b{fill:#248dcf;}.c{fill:#fff;}.d{fill:url(#a);}.e{fill:url(#c);}.f,.h{opacity:0.05;}.g,.h{fill:#161615;}</style><linearGradient id="a" x1="0.5" y1="1" x2="0.5" gradientUnits="objectBoundingBox"><stop offset="0.387" stop-color="#d2d1d1" stop-opacity="0"/><stop offset="1" stop-color="#d2d1d1"/></linearGradient><linearGradient id="c" y1="0.5" x2="1" y2="0.5" gradientUnits="objectBoundingBox"><stop offset="0" stop-color="#eae9e8"/><stop offset="1" stop-color="#fff"/></linearGradient></defs><g transform="translate(-253.3 -155.277)"><path class="a" d="M307.674,216.214,283.3,222.777l-24.375-6.563L253.3,155.277h60Z" transform="translate(0)"/><path class="b" d="M420.942,182.859v57.33l.055.015,19.726-5.311,4.553-52.033Z" transform="translate(-137.643 -22.646)"/><g transform="translate(264.261 167.668)"><path class="c" d="M340.776,232.3l-17.446,7.266.579,7.193,16.867-7.212,17.942-7.671.744-7.359Z" transform="translate(-321.759 -224.516)"/><path class="d" d="M323.33,275.27l.579,7.194,16.867-7.212V268Z" transform="translate(-321.759 -260.222)"/><path class="d" d="M439.508,224.516,420.821,232.3v7.248l17.942-7.671Z" transform="translate(-401.804 -224.516)"/><path class="e" d="M323.48,308.607l.579,7.194,25.88.083-.579,9.591-8.516,2.4-8.187-2.067-.5-5.953h-7.607l.992,11.493,15.38,4.548,15.3-4.465,1.984-22.82Z" transform="translate(-321.882 -293.559)"/><g class="f" transform="translate(1.571 15.048)"><path class="g" d="M340.776,308.607H323.33l.579,7.194,16.867.054Z" transform="translate(-323.33 -308.607)"/><path class="g" d="M345.708,379.442l-.083.023L337.44,377.4l-.5-5.953h-7.607l.992,11.493,15.379,4.547Z" transform="translate(-328.262 -360.201)"/></g><path class="e" d="M314.551,224.516h37.7l-.744,7.359h-36.05Z" transform="translate(-314.551 -224.516)"/><path class="h" d="M333.568,224.516H314.551l.909,7.359h18.108Z" transform="translate(-314.551 -224.516)"/></g></g></svg>